<?xml version="1.0" encoding="UTF-8" standalone="no"?>
<!DOCTYPE svg PUBLIC "-//W3C//DTD SVG 1.1//EN"
 "http://www.w3.org/Graphics/SVG/1.1/DTD/svg11.dtd">
<!-- Generated by graphviz version 2.40.1 (20161225.0304)
 -->
<!-- Title: Tree Pages: 1 -->
<svg width="1088pt" height="1028pt"
 viewBox="0.00 0.00 1088.00 1028.00" xmlns="http://www.w3.org/2000/svg" xmlns:xlink="http://www.w3.org/1999/xlink">
<g id="graph0" class="graph" transform="scale(1 1) rotate(0) translate(4 1024)">
<title>Tree</title>
<polygon fill="#ffffff" stroke="transparent" points="-4,4 -4,-1024 1084,-1024 1084,4 -4,4"/>
<!-- 0 -->
<g id="node1" class="node">
<title>0</title>
<path fill="#d8ecfa" stroke="#000000" d="M681.5,-1020C681.5,-1020 589.5,-1020 589.5,-1020 583.5,-1020 577.5,-1014 577.5,-1008 577.5,-1008 577.5,-949 577.5,-949 577.5,-943 583.5,-937 589.5,-937 589.5,-937 681.5,-937 681.5,-937 687.5,-937 693.5,-943 693.5,-949 693.5,-949 693.5,-1008 693.5,-1008 693.5,-1014 687.5,-1020 681.5,-1020"/>
<text text-anchor="start" x="586.5" y="-1004.8" font-family="Helvetica,sans-Serif" font-size="14.00" fill="#000000">Glucose ≤ 91.5</text>
<text text-anchor="start" x="597.5" y="-989.8" font-family="Helvetica,sans-Serif" font-size="14.00" fill="#000000">gini = 0.494</text>
<text text-anchor="start" x="591.5" y="-974.8" font-family="Helvetica,sans-Serif" font-size="14.00" fill="#000000">samples = 92</text>
<text text-anchor="start" x="585.5" y="-959.8" font-family="Helvetica,sans-Serif" font-size="14.00" fill="#000000">value = [41, 51]</text>
<text text-anchor="start" x="609" y="-944.8" font-family="Helvetica,sans-Serif" font-size="14.00" fill="#000000">class = l</text>
</g>
<!-- 1 -->
<g id="node2" class="node">
<title>1</title>
<path fill="#efb184" stroke="#000000" d="M614.5,-901C614.5,-901 522.5,-901 522.5,-901 516.5,-901 510.5,-895 510.5,-889 510.5,-889 510.5,-830 510.5,-830 510.5,-824 516.5,-818 522.5,-818 522.5,-818 614.5,-818 614.5,-818 620.5,-818 626.5,-824 626.5,-830 626.5,-830 626.5,-889 626.5,-889 626.5,-895 620.5,-901 614.5,-901"/>
<text text-anchor="start" x="521.5" y="-885.8" font-family="Helvetica,sans-Serif" font-size="14.00" fill="#000000">Insulin ≤ 3.207</text>
<text text-anchor="start" x="530.5" y="-870.8" font-family="Helvetica,sans-Serif" font-size="14.00" fill="#000000">gini = 0.399</text>
<text text-anchor="start" x="524.5" y="-855.8" font-family="Helvetica,sans-Serif" font-size="14.00" fill="#000000">samples = 40</text>
<text text-anchor="start" x="518.5" y="-840.8" font-family="Helvetica,sans-Serif" font-size="14.00" fill="#000000">value = [29, 11]</text>
<text text-anchor="start" x="538" y="-825.8" font-family="Helvetica,sans-Serif" font-size="14.00" fill="#000000">class = C</text>
</g>
<!-- 0&#45;&gt;1 -->
<g id="edge1" class="edge">
<title>0&#45;&gt;1</title>
<path fill="none" stroke="#000000" d="M612.0667,-936.8796C607.1987,-928.2335 602.0181,-919.0322 596.9914,-910.1042"/>
<polygon fill="#000000" stroke="#000000" points="599.9893,-908.2947 592.0334,-901.2981 593.8897,-911.729 599.9893,-908.2947"/>
<text text-anchor="middle" x="585.3022" y="-921.6749" font-family="Helvetica,sans-Serif" font-size="14.00" fill="#000000">True</text>
</g>
<!-- 18 -->
<g id="node19" class="node">
<title>18</title>
<path fill="#74baed" stroke="#000000" d="M748.5,-901C748.5,-901 656.5,-901 656.5,-901 650.5,-901 644.5,-895 644.5,-889 644.5,-889 644.5,-830 644.5,-830 644.5,-824 650.5,-818 656.5,-818 656.5,-818 748.5,-818 748.5,-818 754.5,-818 760.5,-824 760.5,-830 760.5,-830 760.5,-889 760.5,-889 760.5,-895 754.5,-901 748.5,-901"/>
<text text-anchor="start" x="656.5" y="-885.8" font-family="Helvetica,sans-Serif" font-size="14.00" fill="#000000">Leptin ≤ 7.933</text>
<text text-anchor="start" x="664.5" y="-870.8" font-family="Helvetica,sans-Serif" font-size="14.00" fill="#000000">gini = 0.355</text>
<text text-anchor="start" x="658.5" y="-855.8" font-family="Helvetica,sans-Serif" font-size="14.00" fill="#000000">samples = 52</text>
<text text-anchor="start" x="652.5" y="-840.8" font-family="Helvetica,sans-Serif" font-size="14.00" fill="#000000">value = [12, 40]</text>
<text text-anchor="start" x="676" y="-825.8" font-family="Helvetica,sans-Serif" font-size="14.00" fill="#000000">class = l</text>
</g>
<!-- 0&#45;&gt;18 -->
<g id="edge18" class="edge">
<title>0&#45;&gt;18</title>
<path fill="none" stroke="#000000" d="M658.9333,-936.8796C663.8013,-928.2335 668.9819,-919.0322 674.0086,-910.1042"/>
<polygon fill="#000000" stroke="#000000" points="677.1103,-911.729 678.9666,-901.2981 671.0107,-908.2947 677.1103,-911.729"/>
<text text-anchor="middle" x="685.6978" y="-921.6749" font-family="Helvetica,sans-Serif" font-size="14.00" fill="#000000">False</text>
</g>
<!-- 2 -->
<g id="node3" class="node">
<title>2</title>
<path fill="#399de5" stroke="#000000" d="M482,-774.5C482,-774.5 407,-774.5 407,-774.5 401,-774.5 395,-768.5 395,-762.5 395,-762.5 395,-718.5 395,-718.5 395,-712.5 401,-706.5 407,-706.5 407,-706.5 482,-706.5 482,-706.5 488,-706.5 494,-712.5 494,-718.5 494,-718.5 494,-762.5 494,-762.5 494,-768.5 488,-774.5 482,-774.5"/>
<text text-anchor="start" x="415" y="-759.3" font-family="Helvetica,sans-Serif" font-size="14.00" fill="#000000">gini = 0.0</text>
<text text-anchor="start" x="405" y="-744.3" font-family="Helvetica,sans-Serif" font-size="14.00" fill="#000000">samples = 5</text>
<text text-anchor="start" x="403" y="-729.3" font-family="Helvetica,sans-Serif" font-size="14.00" fill="#000000">value = [0, 5]</text>
<text text-anchor="start" x="418" y="-714.3" font-family="Helvetica,sans-Serif" font-size="14.00" fill="#000000">class = l</text>
</g>
<!-- 1&#45;&gt;2 -->
<g id="edge2" class="edge">
<title>1&#45;&gt;2</title>
<path fill="none" stroke="#000000" d="M525.1308,-817.8796C512.9852,-806.2237 499.7881,-793.5587 487.6549,-781.9148"/>
<polygon fill="#000000" stroke="#000000" points="489.8953,-779.2138 480.2567,-774.8149 485.0484,-784.2643 489.8953,-779.2138"/>
</g>
<!-- 3 -->
<g id="node4" class="node">
<title>3</title>
<path fill="#ea9b62" stroke="#000000" d="M619,-782C619,-782 524,-782 524,-782 518,-782 512,-776 512,-770 512,-770 512,-711 512,-711 512,-705 518,-699 524,-699 524,-699 619,-699 619,-699 625,-699 631,-705 631,-711 631,-711 631,-770 631,-770 631,-776 625,-782 619,-782"/>
<text text-anchor="start" x="520" y="-766.8" font-family="Helvetica,sans-Serif" font-size="14.00" fill="#000000">Insulin ≤ 26.703</text>
<text text-anchor="start" x="533.5" y="-751.8" font-family="Helvetica,sans-Serif" font-size="14.00" fill="#000000">gini = 0.284</text>
<text text-anchor="start" x="527.5" y="-736.8" font-family="Helvetica,sans-Serif" font-size="14.00" fill="#000000">samples = 35</text>
<text text-anchor="start" x="526" y="-721.8" font-family="Helvetica,sans-Serif" font-size="14.00" fill="#000000">value = [29, 6]</text>
<text text-anchor="start" x="541" y="-706.8" font-family="Helvetica,sans-Serif" font-size="14.00" fill="#000000">class = C</text>
</g>
<!-- 1&#45;&gt;3 -->
<g id="edge3" class="edge">
<title>1&#45;&gt;3</title>
<path fill="none" stroke="#000000" d="M569.5493,-817.8796C569.7559,-809.6838 569.9751,-800.9891 570.189,-792.5013"/>
<polygon fill="#000000" stroke="#000000" points="573.693,-792.3831 570.4463,-782.2981 566.6953,-792.2067 573.693,-792.3831"/>
</g>
<!-- 4 -->
<g id="node5" class="node">
<title>4</title>
<path fill="#e99254" stroke="#000000" d="M508.5,-663C508.5,-663 396.5,-663 396.5,-663 390.5,-663 384.5,-657 384.5,-651 384.5,-651 384.5,-592 384.5,-592 384.5,-586 390.5,-580 396.5,-580 396.5,-580 508.5,-580 508.5,-580 514.5,-580 520.5,-586 520.5,-592 520.5,-592 520.5,-651 520.5,-651 520.5,-657 514.5,-663 508.5,-663"/>
<text text-anchor="start" x="392.5" y="-647.8" font-family="Helvetica,sans-Serif" font-size="14.00" fill="#000000">MCP.1 ≤ 1477.261</text>
<text text-anchor="start" x="414.5" y="-632.8" font-family="Helvetica,sans-Serif" font-size="14.00" fill="#000000">gini = 0.213</text>
<text text-anchor="start" x="408.5" y="-617.8" font-family="Helvetica,sans-Serif" font-size="14.00" fill="#000000">samples = 33</text>
<text text-anchor="start" x="407" y="-602.8" font-family="Helvetica,sans-Serif" font-size="14.00" fill="#000000">value = [29, 4]</text>
<text text-anchor="start" x="422" y="-587.8" font-family="Helvetica,sans-Serif" font-size="14.00" fill="#000000">class = C</text>
</g>
<!-- 3&#45;&gt;4 -->
<g id="edge4" class="edge">
<title>3&#45;&gt;4</title>
<path fill="none" stroke="#000000" d="M529.8796,-698.8796C520.6931,-689.6931 510.8798,-679.8798 501.4336,-670.4336"/>
<polygon fill="#000000" stroke="#000000" points="503.8441,-667.8943 494.2981,-663.2981 498.8943,-672.8441 503.8441,-667.8943"/>
</g>
<!-- 17 -->
<g id="node18" class="node">
<title>17</title>
<path fill="#399de5" stroke="#000000" d="M626,-655.5C626,-655.5 551,-655.5 551,-655.5 545,-655.5 539,-649.5 539,-643.5 539,-643.5 539,-599.5 539,-599.5 539,-593.5 545,-587.5 551,-587.5 551,-587.5 626,-587.5 626,-587.5 632,-587.5 638,-593.5 638,-599.5 638,-599.5 638,-643.5 638,-643.5 638,-649.5 632,-655.5 626,-655.5"/>
<text text-anchor="start" x="559" y="-640.3" font-family="Helvetica,sans-Serif" font-size="14.00" fill="#000000">gini = 0.0</text>
<text text-anchor="start" x="549" y="-625.3" font-family="Helvetica,sans-Serif" font-size="14.00" fill="#000000">samples = 2</text>
<text text-anchor="start" x="547" y="-610.3" font-family="Helvetica,sans-Serif" font-size="14.00" fill="#000000">value = [0, 2]</text>
<text text-anchor="start" x="562" y="-595.3" font-family="Helvetica,sans-Serif" font-size="14.00" fill="#000000">class = l</text>
</g>
<!-- 3&#45;&gt;17 -->
<g id="edge17" class="edge">
<title>3&#45;&gt;17</title>
<path fill="none" stroke="#000000" d="M577.4458,-698.8796C578.9695,-688.2134 580.614,-676.7021 582.1569,-665.9015"/>
<polygon fill="#000000" stroke="#000000" points="585.6484,-666.2094 583.5979,-655.8149 578.7187,-665.2194 585.6484,-666.2094"/>
</g>
<!-- 5 -->
<g id="node6" class="node">
<title>5</title>
<path fill="#e88e4d" stroke="#000000" d="M391.5,-544C391.5,-544 287.5,-544 287.5,-544 281.5,-544 275.5,-538 275.5,-532 275.5,-532 275.5,-473 275.5,-473 275.5,-467 281.5,-461 287.5,-461 287.5,-461 391.5,-461 391.5,-461 397.5,-461 403.5,-467 403.5,-473 403.5,-473 403.5,-532 403.5,-532 403.5,-538 397.5,-544 391.5,-544"/>
<text text-anchor="start" x="283.5" y="-528.8" font-family="Helvetica,sans-Serif" font-size="14.00" fill="#000000">Resistin ≤ 26.318</text>
<text text-anchor="start" x="306" y="-513.8" font-family="Helvetica,sans-Serif" font-size="14.00" fill="#000000">gini = 0.17</text>
<text text-anchor="start" x="295.5" y="-498.8" font-family="Helvetica,sans-Serif" font-size="14.00" fill="#000000">samples = 32</text>
<text text-anchor="start" x="294" y="-483.8" font-family="Helvetica,sans-Serif" font-size="14.00" fill="#000000">value = [29, 3]</text>
<text text-anchor="start" x="309" y="-468.8" font-family="Helvetica,sans-Serif" font-size="14.00" fill="#000000">class = C</text>
</g>
<!-- 4&#45;&gt;5 -->
<g id="edge5" class="edge">
<title>4&#45;&gt;5</title>
<path fill="none" stroke="#000000" d="M412.9781,-579.8796C404.3403,-570.7832 395.119,-561.0722 386.2303,-551.7116"/>
<polygon fill="#000000" stroke="#000000" points="388.6146,-549.1395 379.1906,-544.2981 383.5385,-553.9597 388.6146,-549.1395"/>
</g>
<!-- 16 -->
<g id="node17" class="node">
<title>16</title>
<path fill="#399de5" stroke="#000000" d="M509,-536.5C509,-536.5 434,-536.5 434,-536.5 428,-536.5 422,-530.5 422,-524.5 422,-524.5 422,-480.5 422,-480.5 422,-474.5 428,-468.5 434,-468.5 434,-468.5 509,-468.5 509,-468.5 515,-468.5 521,-474.5 521,-480.5 521,-480.5 521,-524.5 521,-524.5 521,-530.5 515,-536.5 509,-536.5"/>
<text text-anchor="start" x="442" y="-521.3" font-family="Helvetica,sans-Serif" font-size="14.00" fill="#000000">gini = 0.0</text>
<text text-anchor="start" x="432" y="-506.3" font-family="Helvetica,sans-Serif" font-size="14.00" fill="#000000">samples = 1</text>
<text text-anchor="start" x="430" y="-491.3" font-family="Helvetica,sans-Serif" font-size="14.00" fill="#000000">value = [0, 1]</text>
<text text-anchor="start" x="445" y="-476.3" font-family="Helvetica,sans-Serif" font-size="14.00" fill="#000000">class = l</text>
</g>
<!-- 4&#45;&gt;16 -->
<g id="edge16" class="edge">
<title>4&#45;&gt;16</title>
<path fill="none" stroke="#000000" d="M459.1453,-579.8796C460.8483,-569.2134 462.6862,-557.7021 464.4107,-546.9015"/>
<polygon fill="#000000" stroke="#000000" points="467.9006,-547.2417 466.0211,-536.8149 460.9882,-546.138 467.9006,-547.2417"/>
</g>
<!-- 6 -->
<g id="node7" class="node">
<title>6</title>
<path fill="#e78a47" stroke="#000000" d="M338,-425C338,-425 217,-425 217,-425 211,-425 205,-419 205,-413 205,-413 205,-354 205,-354 205,-348 211,-342 217,-342 217,-342 338,-342 338,-342 344,-342 350,-348 350,-354 350,-354 350,-413 350,-413 350,-419 344,-425 338,-425"/>
<text text-anchor="start" x="213" y="-409.8" font-family="Helvetica,sans-Serif" font-size="14.00" fill="#000000">Adiponectin ≤ 3.986</text>
<text text-anchor="start" x="239.5" y="-394.8" font-family="Helvetica,sans-Serif" font-size="14.00" fill="#000000">gini = 0.121</text>
<text text-anchor="start" x="233.5" y="-379.8" font-family="Helvetica,sans-Serif" font-size="14.00" fill="#000000">samples = 31</text>
<text text-anchor="start" x="232" y="-364.8" font-family="Helvetica,sans-Serif" font-size="14.00" fill="#000000">value = [29, 2]</text>
<text text-anchor="start" x="247" y="-349.8" font-family="Helvetica,sans-Serif" font-size="14.00" fill="#000000">class = C</text>
</g>
<!-- 5&#45;&gt;6 -->
<g id="edge6" class="edge">
<title>5&#45;&gt;6</title>
<path fill="none" stroke="#000000" d="M317.8154,-460.8796C313.3577,-452.3236 308.6166,-443.2238 304.0106,-434.3833"/>
<polygon fill="#000000" stroke="#000000" points="307.0017,-432.5494 299.2771,-425.2981 300.7938,-435.7838 307.0017,-432.5494"/>
</g>
<!-- 15 -->
<g id="node16" class="node">
<title>15</title>
<path fill="#399de5" stroke="#000000" d="M455,-417.5C455,-417.5 380,-417.5 380,-417.5 374,-417.5 368,-411.5 368,-405.5 368,-405.5 368,-361.5 368,-361.5 368,-355.5 374,-349.5 380,-349.5 380,-349.5 455,-349.5 455,-349.5 461,-349.5 467,-355.5 467,-361.5 467,-361.5 467,-405.5 467,-405.5 467,-411.5 461,-417.5 455,-417.5"/>
<text text-anchor="start" x="388" y="-402.3" font-family="Helvetica,sans-Serif" font-size="14.00" fill="#000000">gini = 0.0</text>
<text text-anchor="start" x="378" y="-387.3" font-family="Helvetica,sans-Serif" font-size="14.00" fill="#000000">samples = 1</text>
<text text-anchor="start" x="376" y="-372.3" font-family="Helvetica,sans-Serif" font-size="14.00" fill="#000000">value = [0, 1]</text>
<text text-anchor="start" x="391" y="-357.3" font-family="Helvetica,sans-Serif" font-size="14.00" fill="#000000">class = l</text>
</g>
<!-- 5&#45;&gt;15 -->
<g id="edge15" class="edge">
<title>5&#45;&gt;15</title>
<path fill="none" stroke="#000000" d="M366.7806,-460.8796C374.1323,-449.6636 382.0964,-437.5131 389.4874,-426.2372"/>
<polygon fill="#000000" stroke="#000000" points="392.4531,-428.0972 395.0079,-417.8149 386.5986,-424.2598 392.4531,-428.0972"/>
</g>
<!-- 7 -->
<g id="node8" class="node">
<title>7</title>
<path fill="#f2c09c" stroke="#000000" d="M206.5,-306C206.5,-306 122.5,-306 122.5,-306 116.5,-306 110.5,-300 110.5,-294 110.5,-294 110.5,-235 110.5,-235 110.5,-229 116.5,-223 122.5,-223 122.5,-223 206.5,-223 206.5,-223 212.5,-223 218.5,-229 218.5,-235 218.5,-235 218.5,-294 218.5,-294 218.5,-300 212.5,-306 206.5,-306"/>
<text text-anchor="start" x="118.5" y="-290.8" font-family="Helvetica,sans-Serif" font-size="14.00" fill="#000000">Leptin ≤ 14.39</text>
<text text-anchor="start" x="126.5" y="-275.8" font-family="Helvetica,sans-Serif" font-size="14.00" fill="#000000">gini = 0.444</text>
<text text-anchor="start" x="125" y="-260.8" font-family="Helvetica,sans-Serif" font-size="14.00" fill="#000000">samples = 3</text>
<text text-anchor="start" x="123" y="-245.8" font-family="Helvetica,sans-Serif" font-size="14.00" fill="#000000">value = [2, 1]</text>
<text text-anchor="start" x="134" y="-230.8" font-family="Helvetica,sans-Serif" font-size="14.00" fill="#000000">class = C</text>
</g>
<!-- 6&#45;&gt;7 -->
<g id="edge7" class="edge">
<title>6&#45;&gt;7</title>
<path fill="none" stroke="#000000" d="M237.9781,-341.8796C229.3403,-332.7832 220.119,-323.0722 211.2303,-313.7116"/>
<polygon fill="#000000" stroke="#000000" points="213.6146,-311.1395 204.1906,-306.2981 208.5385,-315.9597 213.6146,-311.1395"/>
</g>
<!-- 10 -->
<g id="node11" class="node">
<title>10</title>
<path fill="#e68640" stroke="#000000" d="M338.5,-306C338.5,-306 248.5,-306 248.5,-306 242.5,-306 236.5,-300 236.5,-294 236.5,-294 236.5,-235 236.5,-235 236.5,-229 242.5,-223 248.5,-223 248.5,-223 338.5,-223 338.5,-223 344.5,-223 350.5,-229 350.5,-235 350.5,-235 350.5,-294 350.5,-294 350.5,-300 344.5,-306 338.5,-306"/>
<text text-anchor="start" x="244.5" y="-290.8" font-family="Helvetica,sans-Serif" font-size="14.00" fill="#000000">Glucose ≤ 89.5</text>
<text text-anchor="start" x="255.5" y="-275.8" font-family="Helvetica,sans-Serif" font-size="14.00" fill="#000000">gini = 0.069</text>
<text text-anchor="start" x="249.5" y="-260.8" font-family="Helvetica,sans-Serif" font-size="14.00" fill="#000000">samples = 28</text>
<text text-anchor="start" x="248" y="-245.8" font-family="Helvetica,sans-Serif" font-size="14.00" fill="#000000">value = [27, 1]</text>
<text text-anchor="start" x="263" y="-230.8" font-family="Helvetica,sans-Serif" font-size="14.00" fill="#000000">class = C</text>
</g>
<!-- 6&#45;&gt;10 -->
<g id="edge10" class="edge">
<title>6&#45;&gt;10</title>
<path fill="none" stroke="#000000" d="M283.096,-341.8796C284.2101,-333.5938 285.3927,-324.798 286.5458,-316.2216"/>
<polygon fill="#000000" stroke="#000000" points="290.0162,-316.6753 287.8801,-306.2981 283.0787,-315.7425 290.0162,-316.6753"/>
</g>
<!-- 8 -->
<g id="node9" class="node">
<title>8</title>
<path fill="#399de5" stroke="#000000" d="M87,-179.5C87,-179.5 12,-179.5 12,-179.5 6,-179.5 0,-173.5 0,-167.5 0,-167.5 0,-123.5 0,-123.5 0,-117.5 6,-111.5 12,-111.5 12,-111.5 87,-111.5 87,-111.5 93,-111.5 99,-117.5 99,-123.5 99,-123.5 99,-167.5 99,-167.5 99,-173.5 93,-179.5 87,-179.5"/>
<text text-anchor="start" x="20" y="-164.3" font-family="Helvetica,sans-Serif" font-size="14.00" fill="#000000">gini = 0.0</text>
<text text-anchor="start" x="10" y="-149.3" font-family="Helvetica,sans-Serif" font-size="14.00" fill="#000000">samples = 1</text>
<text text-anchor="start" x="8" y="-134.3" font-family="Helvetica,sans-Serif" font-size="14.00" fill="#000000">value = [0, 1]</text>
<text text-anchor="start" x="23" y="-119.3" font-family="Helvetica,sans-Serif" font-size="14.00" fill="#000000">class = l</text>
</g>
<!-- 7&#45;&gt;8 -->
<g id="edge8" class="edge">
<title>7&#45;&gt;8</title>
<path fill="none" stroke="#000000" d="M124.2786,-222.8796C113.1208,-211.3337 101.0061,-198.7976 89.8414,-187.2446"/>
<polygon fill="#000000" stroke="#000000" points="92.1275,-184.5736 82.6615,-179.8149 87.0939,-189.4381 92.1275,-184.5736"/>
</g>
<!-- 9 -->
<g id="node10" class="node">
<title>9</title>
<path fill="#e58139" stroke="#000000" d="M204,-179.5C204,-179.5 129,-179.5 129,-179.5 123,-179.5 117,-173.5 117,-167.5 117,-167.5 117,-123.5 117,-123.5 117,-117.5 123,-111.5 129,-111.5 129,-111.5 204,-111.5 204,-111.5 210,-111.5 216,-117.5 216,-123.5 216,-123.5 216,-167.5 216,-167.5 216,-173.5 210,-179.5 204,-179.5"/>
<text text-anchor="start" x="137" y="-164.3" font-family="Helvetica,sans-Serif" font-size="14.00" fill="#000000">gini = 0.0</text>
<text text-anchor="start" x="127" y="-149.3" font-family="Helvetica,sans-Serif" font-size="14.00" fill="#000000">samples = 2</text>
<text text-anchor="start" x="125" y="-134.3" font-family="Helvetica,sans-Serif" font-size="14.00" fill="#000000">value = [2, 0]</text>
<text text-anchor="start" x="136" y="-119.3" font-family="Helvetica,sans-Serif" font-size="14.00" fill="#000000">class = C</text>
</g>
<!-- 7&#45;&gt;9 -->
<g id="edge9" class="edge">
<title>7&#45;&gt;9</title>
<path fill="none" stroke="#000000" d="M165.1995,-222.8796C165.3788,-212.2134 165.5722,-200.7021 165.7538,-189.9015"/>
<polygon fill="#000000" stroke="#000000" points="169.2546,-189.8724 165.9233,-179.8149 162.2556,-189.7547 169.2546,-189.8724"/>
</g>
<!-- 11 -->
<g id="node12" class="node">
<title>11</title>
<path fill="#e58139" stroke="#000000" d="M333,-179.5C333,-179.5 250,-179.5 250,-179.5 244,-179.5 238,-173.5 238,-167.5 238,-167.5 238,-123.5 238,-123.5 238,-117.5 244,-111.5 250,-111.5 250,-111.5 333,-111.5 333,-111.5 339,-111.5 345,-117.5 345,-123.5 345,-123.5 345,-167.5 345,-167.5 345,-173.5 339,-179.5 333,-179.5"/>
<text text-anchor="start" x="262" y="-164.3" font-family="Helvetica,sans-Serif" font-size="14.00" fill="#000000">gini = 0.0</text>
<text text-anchor="start" x="247.5" y="-149.3" font-family="Helvetica,sans-Serif" font-size="14.00" fill="#000000">samples = 22</text>
<text text-anchor="start" x="246" y="-134.3" font-family="Helvetica,sans-Serif" font-size="14.00" fill="#000000">value = [22, 0]</text>
<text text-anchor="start" x="261" y="-119.3" font-family="Helvetica,sans-Serif" font-size="14.00" fill="#000000">class = C</text>
</g>
<!-- 10&#45;&gt;11 -->
<g id="edge11" class="edge">
<title>10&#45;&gt;11</title>
<path fill="none" stroke="#000000" d="M292.8005,-222.8796C292.6212,-212.2134 292.4278,-200.7021 292.2462,-189.9015"/>
<polygon fill="#000000" stroke="#000000" points="295.7444,-189.7547 292.0767,-179.8149 288.7454,-189.8724 295.7444,-189.7547"/>
</g>
<!-- 12 -->
<g id="node13" class="node">
<title>12</title>
<path fill="#ea9a61" stroke="#000000" d="M496,-187C496,-187 375,-187 375,-187 369,-187 363,-181 363,-175 363,-175 363,-116 363,-116 363,-110 369,-104 375,-104 375,-104 496,-104 496,-104 502,-104 508,-110 508,-116 508,-116 508,-175 508,-175 508,-181 502,-187 496,-187"/>
<text text-anchor="start" x="371" y="-171.8" font-family="Helvetica,sans-Serif" font-size="14.00" fill="#000000">Adiponectin ≤ 6.806</text>
<text text-anchor="start" x="397.5" y="-156.8" font-family="Helvetica,sans-Serif" font-size="14.00" fill="#000000">gini = 0.278</text>
<text text-anchor="start" x="396" y="-141.8" font-family="Helvetica,sans-Serif" font-size="14.00" fill="#000000">samples = 6</text>
<text text-anchor="start" x="394" y="-126.8" font-family="Helvetica,sans-Serif" font-size="14.00" fill="#000000">value = [5, 1]</text>
<text text-anchor="start" x="405" y="-111.8" font-family="Helvetica,sans-Serif" font-size="14.00" fill="#000000">class = C</text>
</g>
<!-- 10&#45;&gt;12 -->
<g id="edge12" class="edge">
<title>10&#45;&gt;12</title>
<path fill="none" stroke="#000000" d="M343.1647,-222.8796C354.3416,-213.513 366.2962,-203.4948 377.7712,-193.8784"/>
<polygon fill="#000000" stroke="#000000" points="380.2069,-196.4037 385.6233,-187.2981 375.7107,-191.0386 380.2069,-196.4037"/>
</g>
<!-- 13 -->
<g id="node14" class="node">
<title>13</title>
<path fill="#399de5" stroke="#000000" d="M405,-68C405,-68 330,-68 330,-68 324,-68 318,-62 318,-56 318,-56 318,-12 318,-12 318,-6 324,0 330,0 330,0 405,0 405,0 411,0 417,-6 417,-12 417,-12 417,-56 417,-56 417,-62 411,-68 405,-68"/>
<text text-anchor="start" x="338" y="-52.8" font-family="Helvetica,sans-Serif" font-size="14.00" fill="#000000">gini = 0.0</text>
<text text-anchor="start" x="328" y="-37.8" font-family="Helvetica,sans-Serif" font-size="14.00" fill="#000000">samples = 1</text>
<text text-anchor="start" x="326" y="-22.8" font-family="Helvetica,sans-Serif" font-size="14.00" fill="#000000">value = [0, 1]</text>
<text text-anchor="start" x="341" y="-7.8" font-family="Helvetica,sans-Serif" font-size="14.00" fill="#000000">class = l</text>
</g>
<!-- 12&#45;&gt;13 -->
<g id="edge13" class="edge">
<title>12&#45;&gt;13</title>
<path fill="none" stroke="#000000" d="M410.1793,-103.9815C404.7984,-95.1585 399.1068,-85.8258 393.6941,-76.9506"/>
<polygon fill="#000000" stroke="#000000" points="396.5912,-74.9789 388.3962,-68.2637 390.6149,-78.6236 396.5912,-74.9789"/>
</g>
<!-- 14 -->
<g id="node15" class="node">
<title>14</title>
<path fill="#e58139" stroke="#000000" d="M522,-68C522,-68 447,-68 447,-68 441,-68 435,-62 435,-56 435,-56 435,-12 435,-12 435,-6 441,0 447,0 447,0 522,0 522,0 528,0 534,-6 534,-12 534,-12 534,-56 534,-56 534,-62 528,-68 522,-68"/>
<text text-anchor="start" x="455" y="-52.8" font-family="Helvetica,sans-Serif" font-size="14.00" fill="#000000">gini = 0.0</text>
<text text-anchor="start" x="445" y="-37.8" font-family="Helvetica,sans-Serif" font-size="14.00" fill="#000000">samples = 5</text>
<text text-anchor="start" x="443" y="-22.8" font-family="Helvetica,sans-Serif" font-size="14.00" fill="#000000">value = [5, 0]</text>
<text text-anchor="start" x="454" y="-7.8" font-family="Helvetica,sans-Serif" font-size="14.00" fill="#000000">class = C</text>
</g>
<!-- 12&#45;&gt;14 -->
<g id="edge14" class="edge">
<title>12&#45;&gt;14</title>
<path fill="none" stroke="#000000" d="M453.7458,-103.9815C457.5424,-95.3423 461.5538,-86.2144 465.3808,-77.5059"/>
<polygon fill="#000000" stroke="#000000" points="468.6233,-78.8268 469.4424,-68.2637 462.2149,-76.0105 468.6233,-78.8268"/>
</g>
<!-- 19 -->
<g id="node20" class="node">
<title>19</title>
<path fill="#e58139" stroke="#000000" d="M738,-774.5C738,-774.5 663,-774.5 663,-774.5 657,-774.5 651,-768.5 651,-762.5 651,-762.5 651,-718.5 651,-718.5 651,-712.5 657,-706.5 663,-706.5 663,-706.5 738,-706.5 738,-706.5 744,-706.5 750,-712.5 750,-718.5 750,-718.5 750,-762.5 750,-762.5 750,-768.5 744,-774.5 738,-774.5"/>
<text text-anchor="start" x="671" y="-759.3" font-family="Helvetica,sans-Serif" font-size="14.00" fill="#000000">gini = 0.0</text>
<text text-anchor="start" x="661" y="-744.3" font-family="Helvetica,sans-Serif" font-size="14.00" fill="#000000">samples = 3</text>
<text text-anchor="start" x="659" y="-729.3" font-family="Helvetica,sans-Serif" font-size="14.00" fill="#000000">value = [3, 0]</text>
<text text-anchor="start" x="670" y="-714.3" font-family="Helvetica,sans-Serif" font-size="14.00" fill="#000000">class = C</text>
</g>
<!-- 18&#45;&gt;19 -->
<g id="edge19" class="edge">
<title>18&#45;&gt;19</title>
<path fill="none" stroke="#000000" d="M701.8005,-817.8796C701.6212,-807.2134 701.4278,-795.7021 701.2462,-784.9015"/>
<polygon fill="#000000" stroke="#000000" points="704.7444,-784.7547 701.0767,-774.8149 697.7454,-784.8724 704.7444,-784.7547"/>
</g>
<!-- 20 -->
<g id="node21" class="node">
<title>20</title>
<path fill="#66b3eb" stroke="#000000" d="M863,-782C863,-782 780,-782 780,-782 774,-782 768,-776 768,-770 768,-770 768,-711 768,-711 768,-705 774,-699 780,-699 780,-699 863,-699 863,-699 869,-699 875,-705 875,-711 875,-711 875,-770 875,-770 875,-776 869,-782 863,-782"/>
<text text-anchor="start" x="778.5" y="-766.8" font-family="Helvetica,sans-Serif" font-size="14.00" fill="#000000">BMI ≤ 36.131</text>
<text text-anchor="start" x="792" y="-751.8" font-family="Helvetica,sans-Serif" font-size="14.00" fill="#000000">gini = 0.3</text>
<text text-anchor="start" x="777.5" y="-736.8" font-family="Helvetica,sans-Serif" font-size="14.00" fill="#000000">samples = 49</text>
<text text-anchor="start" x="776" y="-721.8" font-family="Helvetica,sans-Serif" font-size="14.00" fill="#000000">value = [9, 40]</text>
<text text-anchor="start" x="795" y="-706.8" font-family="Helvetica,sans-Serif" font-size="14.00" fill="#000000">class = l</text>
</g>
<!-- 18&#45;&gt;20 -->
<g id="edge20" class="edge">
<title>18&#45;&gt;20</title>
<path fill="none" stroke="#000000" d="M744.1204,-817.8796C753.3069,-808.6931 763.1202,-798.8798 772.5664,-789.4336"/>
<polygon fill="#000000" stroke="#000000" points="775.1057,-791.8441 779.7019,-782.2981 770.1559,-786.8943 775.1057,-791.8441"/>
</g>
<!-- 21 -->
<g id="node22" class="node">
<title>21</title>
<path fill="#57ace9" stroke="#000000" d="M835.5,-663C835.5,-663 731.5,-663 731.5,-663 725.5,-663 719.5,-657 719.5,-651 719.5,-651 719.5,-592 719.5,-592 719.5,-586 725.5,-580 731.5,-580 731.5,-580 835.5,-580 835.5,-580 841.5,-580 847.5,-586 847.5,-592 847.5,-592 847.5,-651 847.5,-651 847.5,-657 841.5,-663 835.5,-663"/>
<text text-anchor="start" x="727.5" y="-647.8" font-family="Helvetica,sans-Serif" font-size="14.00" fill="#000000">MCP.1 ≤ 387.508</text>
<text text-anchor="start" x="745.5" y="-632.8" font-family="Helvetica,sans-Serif" font-size="14.00" fill="#000000">gini = 0.231</text>
<text text-anchor="start" x="739.5" y="-617.8" font-family="Helvetica,sans-Serif" font-size="14.00" fill="#000000">samples = 45</text>
<text text-anchor="start" x="738" y="-602.8" font-family="Helvetica,sans-Serif" font-size="14.00" fill="#000000">value = [6, 39]</text>
<text text-anchor="start" x="757" y="-587.8" font-family="Helvetica,sans-Serif" font-size="14.00" fill="#000000">class = l</text>
</g>
<!-- 20&#45;&gt;21 -->
<g id="edge21" class="edge">
<title>20&#45;&gt;21</title>
<path fill="none" stroke="#000000" d="M808.2094,-698.8796C805.5348,-690.5037 802.6937,-681.6067 799.9269,-672.942"/>
<polygon fill="#000000" stroke="#000000" points="803.2234,-671.7595 796.8473,-663.2981 796.5552,-673.8889 803.2234,-671.7595"/>
</g>
<!-- 32 -->
<g id="node33" class="node">
<title>32</title>
<path fill="#eeab7b" stroke="#000000" d="M955.5,-663C955.5,-663 877.5,-663 877.5,-663 871.5,-663 865.5,-657 865.5,-651 865.5,-651 865.5,-592 865.5,-592 865.5,-586 871.5,-580 877.5,-580 877.5,-580 955.5,-580 955.5,-580 961.5,-580 967.5,-586 967.5,-592 967.5,-592 967.5,-651 967.5,-651 967.5,-657 961.5,-663 955.5,-663"/>
<text text-anchor="start" x="873.5" y="-647.8" font-family="Helvetica,sans-Serif" font-size="14.00" fill="#000000">Insulin ≤ 6.17</text>
<text text-anchor="start" x="878.5" y="-632.8" font-family="Helvetica,sans-Serif" font-size="14.00" fill="#000000">gini = 0.375</text>
<text text-anchor="start" x="877" y="-617.8" font-family="Helvetica,sans-Serif" font-size="14.00" fill="#000000">samples = 4</text>
<text text-anchor="start" x="875" y="-602.8" font-family="Helvetica,sans-Serif" font-size="14.00" fill="#000000">value = [3, 1]</text>
<text text-anchor="start" x="886" y="-587.8" font-family="Helvetica,sans-Serif" font-size="14.00" fill="#000000">class = C</text>
</g>
<!-- 20&#45;&gt;32 -->
<g id="edge32" class="edge">
<title>20&#45;&gt;32</title>
<path fill="none" stroke="#000000" d="M854.7264,-698.8796C861.8444,-689.9633 869.4339,-680.4565 876.7692,-671.268"/>
<polygon fill="#000000" stroke="#000000" points="879.6281,-673.2968 883.1318,-663.2981 874.1575,-668.9295 879.6281,-673.2968"/>
</g>
<!-- 22 -->
<g id="node23" class="node">
<title>22</title>
<path fill="#83c2ef" stroke="#000000" d="M703,-544C703,-544 582,-544 582,-544 576,-544 570,-538 570,-532 570,-532 570,-473 570,-473 570,-467 576,-461 582,-461 582,-461 703,-461 703,-461 709,-461 715,-467 715,-473 715,-473 715,-532 715,-532 715,-538 709,-544 703,-544"/>
<text text-anchor="start" x="578" y="-528.8" font-family="Helvetica,sans-Serif" font-size="14.00" fill="#000000">Adiponectin ≤ 9.348</text>
<text text-anchor="start" x="604.5" y="-513.8" font-family="Helvetica,sans-Serif" font-size="14.00" fill="#000000">gini = 0.397</text>
<text text-anchor="start" x="598.5" y="-498.8" font-family="Helvetica,sans-Serif" font-size="14.00" fill="#000000">samples = 22</text>
<text text-anchor="start" x="597" y="-483.8" font-family="Helvetica,sans-Serif" font-size="14.00" fill="#000000">value = [6, 16]</text>
<text text-anchor="start" x="616" y="-468.8" font-family="Helvetica,sans-Serif" font-size="14.00" fill="#000000">class = l</text>
</g>
<!-- 21&#45;&gt;22 -->
<g id="edge22" class="edge">
<title>21&#45;&gt;22</title>
<path fill="none" stroke="#000000" d="M734.185,-579.8796C723.0868,-570.513 711.2165,-560.4948 699.8223,-550.8784"/>
<polygon fill="#000000" stroke="#000000" points="701.925,-548.0731 692.0254,-544.2981 697.4101,-553.4225 701.925,-548.0731"/>
</g>
<!-- 31 -->
<g id="node32" class="node">
<title>31</title>
<path fill="#399de5" stroke="#000000" d="M828,-536.5C828,-536.5 745,-536.5 745,-536.5 739,-536.5 733,-530.5 733,-524.5 733,-524.5 733,-480.5 733,-480.5 733,-474.5 739,-468.5 745,-468.5 745,-468.5 828,-468.5 828,-468.5 834,-468.5 840,-474.5 840,-480.5 840,-480.5 840,-524.5 840,-524.5 840,-530.5 834,-536.5 828,-536.5"/>
<text text-anchor="start" x="757" y="-521.3" font-family="Helvetica,sans-Serif" font-size="14.00" fill="#000000">gini = 0.0</text>
<text text-anchor="start" x="742.5" y="-506.3" font-family="Helvetica,sans-Serif" font-size="14.00" fill="#000000">samples = 23</text>
<text text-anchor="start" x="741" y="-491.3" font-family="Helvetica,sans-Serif" font-size="14.00" fill="#000000">value = [0, 23]</text>
<text text-anchor="start" x="760" y="-476.3" font-family="Helvetica,sans-Serif" font-size="14.00" fill="#000000">class = l</text>
</g>
<!-- 21&#45;&gt;31 -->
<g id="edge31" class="edge">
<title>21&#45;&gt;31</title>
<path fill="none" stroke="#000000" d="M784.5493,-579.8796C784.8182,-569.2134 785.1084,-557.7021 785.3806,-546.9015"/>
<polygon fill="#000000" stroke="#000000" points="788.8817,-546.9 785.6349,-536.8149 781.8839,-546.7235 788.8817,-546.9"/>
</g>
<!-- 23 -->
<g id="node24" class="node">
<title>23</title>
<path fill="#ffffff" stroke="#000000" d="M598.5,-425C598.5,-425 506.5,-425 506.5,-425 500.5,-425 494.5,-419 494.5,-413 494.5,-413 494.5,-354 494.5,-354 494.5,-348 500.5,-342 506.5,-342 506.5,-342 598.5,-342 598.5,-342 604.5,-342 610.5,-348 610.5,-354 610.5,-354 610.5,-413 610.5,-413 610.5,-419 604.5,-425 598.5,-425"/>
<text text-anchor="start" x="502.5" y="-409.8" font-family="Helvetica,sans-Serif" font-size="14.00" fill="#000000">Leptin ≤ 19.951</text>
<text text-anchor="start" x="523" y="-394.8" font-family="Helvetica,sans-Serif" font-size="14.00" fill="#000000">gini = 0.5</text>
<text text-anchor="start" x="508.5" y="-379.8" font-family="Helvetica,sans-Serif" font-size="14.00" fill="#000000">samples = 12</text>
<text text-anchor="start" x="511" y="-364.8" font-family="Helvetica,sans-Serif" font-size="14.00" fill="#000000">value = [6, 6]</text>
<text text-anchor="start" x="522" y="-349.8" font-family="Helvetica,sans-Serif" font-size="14.00" fill="#000000">class = C</text>
</g>
<!-- 22&#45;&gt;23 -->
<g id="edge23" class="edge">
<title>22&#45;&gt;23</title>
<path fill="none" stroke="#000000" d="M611.0224,-460.8796C604.3471,-452.0534 597.2342,-442.6485 590.3504,-433.5466"/>
<polygon fill="#000000" stroke="#000000" points="592.9357,-431.1626 584.112,-425.2981 587.3526,-435.3852 592.9357,-431.1626"/>
</g>
<!-- 30 -->
<g id="node31" class="node">
<title>30</title>
<path fill="#399de5" stroke="#000000" d="M724,-417.5C724,-417.5 641,-417.5 641,-417.5 635,-417.5 629,-411.5 629,-405.5 629,-405.5 629,-361.5 629,-361.5 629,-355.5 635,-349.5 641,-349.5 641,-349.5 724,-349.5 724,-349.5 730,-349.5 736,-355.5 736,-361.5 736,-361.5 736,-405.5 736,-405.5 736,-411.5 730,-417.5 724,-417.5"/>
<text text-anchor="start" x="653" y="-402.3" font-family="Helvetica,sans-Serif" font-size="14.00" fill="#000000">gini = 0.0</text>
<text text-anchor="start" x="638.5" y="-387.3" font-family="Helvetica,sans-Serif" font-size="14.00" fill="#000000">samples = 10</text>
<text text-anchor="start" x="637" y="-372.3" font-family="Helvetica,sans-Serif" font-size="14.00" fill="#000000">value = [0, 10]</text>
<text text-anchor="start" x="656" y="-357.3" font-family="Helvetica,sans-Serif" font-size="14.00" fill="#000000">class = l</text>
</g>
<!-- 22&#45;&gt;30 -->
<g id="edge30" class="edge">
<title>22&#45;&gt;30</title>
<path fill="none" stroke="#000000" d="M656.4901,-460.8796C660.1123,-450.1034 664.0245,-438.4647 667.6873,-427.5677"/>
<polygon fill="#000000" stroke="#000000" points="671.0969,-428.409 670.9656,-417.8149 664.4617,-426.1786 671.0969,-428.409"/>
</g>
<!-- 24 -->
<g id="node25" class="node">
<title>24</title>
<path fill="#399de5" stroke="#000000" d="M560,-298.5C560,-298.5 485,-298.5 485,-298.5 479,-298.5 473,-292.5 473,-286.5 473,-286.5 473,-242.5 473,-242.5 473,-236.5 479,-230.5 485,-230.5 485,-230.5 560,-230.5 560,-230.5 566,-230.5 572,-236.5 572,-242.5 572,-242.5 572,-286.5 572,-286.5 572,-292.5 566,-298.5 560,-298.5"/>
<text text-anchor="start" x="493" y="-283.3" font-family="Helvetica,sans-Serif" font-size="14.00" fill="#000000">gini = 0.0</text>
<text text-anchor="start" x="483" y="-268.3" font-family="Helvetica,sans-Serif" font-size="14.00" fill="#000000">samples = 4</text>
<text text-anchor="start" x="481" y="-253.3" font-family="Helvetica,sans-Serif" font-size="14.00" fill="#000000">value = [0, 4]</text>
<text text-anchor="start" x="496" y="-238.3" font-family="Helvetica,sans-Serif" font-size="14.00" fill="#000000">class = l</text>
</g>
<!-- 23&#45;&gt;24 -->
<g id="edge24" class="edge">
<title>23&#45;&gt;24</title>
<path fill="none" stroke="#000000" d="M542.0075,-341.8796C539.2908,-331.1034 536.3566,-319.4647 533.6095,-308.5677"/>
<polygon fill="#000000" stroke="#000000" points="536.9892,-307.6559 531.1508,-298.8149 530.2016,-309.3672 536.9892,-307.6559"/>
</g>
<!-- 25 -->
<g id="node26" class="node">
<title>25</title>
<path fill="#eeab7b" stroke="#000000" d="M700.5,-306C700.5,-306 602.5,-306 602.5,-306 596.5,-306 590.5,-300 590.5,-294 590.5,-294 590.5,-235 590.5,-235 590.5,-229 596.5,-223 602.5,-223 602.5,-223 700.5,-223 700.5,-223 706.5,-223 712.5,-229 712.5,-235 712.5,-235 712.5,-294 712.5,-294 712.5,-300 706.5,-306 700.5,-306"/>
<text text-anchor="start" x="598.5" y="-290.8" font-family="Helvetica,sans-Serif" font-size="14.00" fill="#000000">Glucose ≤ 103.5</text>
<text text-anchor="start" x="613.5" y="-275.8" font-family="Helvetica,sans-Serif" font-size="14.00" fill="#000000">gini = 0.375</text>
<text text-anchor="start" x="612" y="-260.8" font-family="Helvetica,sans-Serif" font-size="14.00" fill="#000000">samples = 8</text>
<text text-anchor="start" x="610" y="-245.8" font-family="Helvetica,sans-Serif" font-size="14.00" fill="#000000">value = [6, 2]</text>
<text text-anchor="start" x="621" y="-230.8" font-family="Helvetica,sans-Serif" font-size="14.00" fill="#000000">class = C</text>
</g>
<!-- 23&#45;&gt;25 -->
<g id="edge25" class="edge">
<title>23&#45;&gt;25</title>
<path fill="none" stroke="#000000" d="M587.1254,-341.8796C594.618,-332.8733 602.6119,-323.2644 610.3279,-313.9897"/>
<polygon fill="#000000" stroke="#000000" points="613.0219,-316.224 616.7268,-306.2981 607.6407,-311.7472 613.0219,-316.224"/>
</g>
<!-- 26 -->
<g id="node27" class="node">
<title>26</title>
<path fill="#e58139" stroke="#000000" d="M673,-179.5C673,-179.5 598,-179.5 598,-179.5 592,-179.5 586,-173.5 586,-167.5 586,-167.5 586,-123.5 586,-123.5 586,-117.5 592,-111.5 598,-111.5 598,-111.5 673,-111.5 673,-111.5 679,-111.5 685,-117.5 685,-123.5 685,-123.5 685,-167.5 685,-167.5 685,-173.5 679,-179.5 673,-179.5"/>
<text text-anchor="start" x="606" y="-164.3" font-family="Helvetica,sans-Serif" font-size="14.00" fill="#000000">gini = 0.0</text>
<text text-anchor="start" x="596" y="-149.3" font-family="Helvetica,sans-Serif" font-size="14.00" fill="#000000">samples = 5</text>
<text text-anchor="start" x="594" y="-134.3" font-family="Helvetica,sans-Serif" font-size="14.00" fill="#000000">value = [5, 0]</text>
<text text-anchor="start" x="605" y="-119.3" font-family="Helvetica,sans-Serif" font-size="14.00" fill="#000000">class = C</text>
</g>
<!-- 25&#45;&gt;26 -->
<g id="edge26" class="edge">
<title>25&#45;&gt;26</title>
<path fill="none" stroke="#000000" d="M645.904,-222.8796C644.4699,-212.2134 642.9221,-200.7021 641.47,-189.9015"/>
<polygon fill="#000000" stroke="#000000" points="644.9152,-189.2593 640.1138,-179.8149 637.9776,-190.1922 644.9152,-189.2593"/>
</g>
<!-- 27 -->
<g id="node28" class="node">
<title>27</title>
<path fill="#9ccef2" stroke="#000000" d="M819.5,-187C819.5,-187 715.5,-187 715.5,-187 709.5,-187 703.5,-181 703.5,-175 703.5,-175 703.5,-116 703.5,-116 703.5,-110 709.5,-104 715.5,-104 715.5,-104 819.5,-104 819.5,-104 825.5,-104 831.5,-110 831.5,-116 831.5,-116 831.5,-175 831.5,-175 831.5,-181 825.5,-187 819.5,-187"/>
<text text-anchor="start" x="711.5" y="-171.8" font-family="Helvetica,sans-Serif" font-size="14.00" fill="#000000">MCP.1 ≤ 132.061</text>
<text text-anchor="start" x="729.5" y="-156.8" font-family="Helvetica,sans-Serif" font-size="14.00" fill="#000000">gini = 0.444</text>
<text text-anchor="start" x="728" y="-141.8" font-family="Helvetica,sans-Serif" font-size="14.00" fill="#000000">samples = 3</text>
<text text-anchor="start" x="726" y="-126.8" font-family="Helvetica,sans-Serif" font-size="14.00" fill="#000000">value = [1, 2]</text>
<text text-anchor="start" x="741" y="-111.8" font-family="Helvetica,sans-Serif" font-size="14.00" fill="#000000">class = l</text>
</g>
<!-- 25&#45;&gt;27 -->
<g id="edge27" class="edge">
<title>25&#45;&gt;27</title>
<path fill="none" stroke="#000000" d="M692.0712,-222.8796C700.9382,-213.7832 710.4044,-204.0722 719.5291,-194.7116"/>
<polygon fill="#000000" stroke="#000000" points="722.2817,-196.9019 726.7557,-187.2981 717.2691,-192.0158 722.2817,-196.9019"/>
</g>
<!-- 28 -->
<g id="node29" class="node">
<title>28</title>
<path fill="#e58139" stroke="#000000" d="M746,-68C746,-68 671,-68 671,-68 665,-68 659,-62 659,-56 659,-56 659,-12 659,-12 659,-6 665,0 671,0 671,0 746,0 746,0 752,0 758,-6 758,-12 758,-12 758,-56 758,-56 758,-62 752,-68 746,-68"/>
<text text-anchor="start" x="679" y="-52.8" font-family="Helvetica,sans-Serif" font-size="14.00" fill="#000000">gini = 0.0</text>
<text text-anchor="start" x="669" y="-37.8" font-family="Helvetica,sans-Serif" font-size="14.00" fill="#000000">samples = 1</text>
<text text-anchor="start" x="667" y="-22.8" font-family="Helvetica,sans-Serif" font-size="14.00" fill="#000000">value = [1, 0]</text>
<text text-anchor="start" x="678" y="-7.8" font-family="Helvetica,sans-Serif" font-size="14.00" fill="#000000">class = C</text>
</g>
<!-- 27&#45;&gt;28 -->
<g id="edge28" class="edge">
<title>27&#45;&gt;28</title>
<path fill="none" stroke="#000000" d="M745.5306,-103.9815C740.9105,-95.2504 736.0264,-86.0202 731.374,-77.2281"/>
<polygon fill="#000000" stroke="#000000" points="734.4013,-75.4655 726.6306,-68.2637 728.2141,-78.7395 734.4013,-75.4655"/>
</g>
<!-- 29 -->
<g id="node30" class="node">
<title>29</title>
<path fill="#399de5" stroke="#000000" d="M863,-68C863,-68 788,-68 788,-68 782,-68 776,-62 776,-56 776,-56 776,-12 776,-12 776,-6 782,0 788,0 788,0 863,0 863,0 869,0 875,-6 875,-12 875,-12 875,-56 875,-56 875,-62 869,-68 863,-68"/>
<text text-anchor="start" x="796" y="-52.8" font-family="Helvetica,sans-Serif" font-size="14.00" fill="#000000">gini = 0.0</text>
<text text-anchor="start" x="786" y="-37.8" font-family="Helvetica,sans-Serif" font-size="14.00" fill="#000000">samples = 2</text>
<text text-anchor="start" x="784" y="-22.8" font-family="Helvetica,sans-Serif" font-size="14.00" fill="#000000">value = [0, 2]</text>
<text text-anchor="start" x="799" y="-7.8" font-family="Helvetica,sans-Serif" font-size="14.00" fill="#000000">class = l</text>
</g>
<!-- 27&#45;&gt;29 -->
<g id="edge29" class="edge">
<title>27&#45;&gt;29</title>
<path fill="none" stroke="#000000" d="M789.0971,-103.9815C793.6388,-95.2504 798.4402,-86.0202 803.0137,-77.2281"/>
<polygon fill="#000000" stroke="#000000" points="806.1669,-78.7504 807.6767,-68.2637 799.9569,-75.52 806.1669,-78.7504"/>
</g>
<!-- 33 -->
<g id="node34" class="node">
<title>33</title>
<path fill="#399de5" stroke="#000000" d="M951,-536.5C951,-536.5 876,-536.5 876,-536.5 870,-536.5 864,-530.5 864,-524.5 864,-524.5 864,-480.5 864,-480.5 864,-474.5 870,-468.5 876,-468.5 876,-468.5 951,-468.5 951,-468.5 957,-468.5 963,-474.5 963,-480.5 963,-480.5 963,-524.5 963,-524.5 963,-530.5 957,-536.5 951,-536.5"/>
<text text-anchor="start" x="884" y="-521.3" font-family="Helvetica,sans-Serif" font-size="14.00" fill="#000000">gini = 0.0</text>
<text text-anchor="start" x="874" y="-506.3" font-family="Helvetica,sans-Serif" font-size="14.00" fill="#000000">samples = 1</text>
<text text-anchor="start" x="872" y="-491.3" font-family="Helvetica,sans-Serif" font-size="14.00" fill="#000000">value = [0, 1]</text>
<text text-anchor="start" x="887" y="-476.3" font-family="Helvetica,sans-Serif" font-size="14.00" fill="#000000">class = l</text>
</g>
<!-- 32&#45;&gt;33 -->
<g id="edge33" class="edge">
<title>32&#45;&gt;33</title>
<path fill="none" stroke="#000000" d="M915.4507,-579.8796C915.1818,-569.2134 914.8916,-557.7021 914.6194,-546.9015"/>
<polygon fill="#000000" stroke="#000000" points="918.1161,-546.7235 914.3651,-536.8149 911.1183,-546.9 918.1161,-546.7235"/>
</g>
<!-- 34 -->
<g id="node35" class="node">
<title>34</title>
<path fill="#e58139" stroke="#000000" d="M1068,-536.5C1068,-536.5 993,-536.5 993,-536.5 987,-536.5 981,-530.5 981,-524.5 981,-524.5 981,-480.5 981,-480.5 981,-474.5 987,-468.5 993,-468.5 993,-468.5 1068,-468.5 1068,-468.5 1074,-468.5 1080,-474.5 1080,-480.5 1080,-480.5 1080,-524.5 1080,-524.5 1080,-530.5 1074,-536.5 1068,-536.5"/>
<text text-anchor="start" x="1001" y="-521.3" font-family="Helvetica,sans-Serif" font-size="14.00" fill="#000000">gini = 0.0</text>
<text text-anchor="start" x="991" y="-506.3" font-family="Helvetica,sans-Serif" font-size="14.00" fill="#000000">samples = 3</text>
<text text-anchor="start" x="989" y="-491.3" font-family="Helvetica,sans-Serif" font-size="14.00" fill="#000000">value = [3, 0]</text>
<text text-anchor="start" x="1000" y="-476.3" font-family="Helvetica,sans-Serif" font-size="14.00" fill="#000000">class = C</text>
</g>
<!-- 32&#45;&gt;34 -->
<g id="edge34" class="edge">
<title>32&#45;&gt;34</title>
<path fill="none" stroke="#000000" d="M956.3717,-579.8796C967.4324,-568.3337 979.4418,-555.7976 990.5094,-544.2446"/>
<polygon fill="#000000" stroke="#000000" points="993.2365,-546.4573 997.6269,-536.8149 988.1817,-541.6149 993.2365,-546.4573"/>
</g>
</g>
</svg>
