<?xml version="1.0" encoding="UTF-8" standalone="no"?>
<!DOCTYPE svg PUBLIC "-//W3C//DTD SVG 1.1//EN"
 "http://www.w3.org/Graphics/SVG/1.1/DTD/svg11.dtd">
<!-- Generated by graphviz version 2.40.1 (20161225.0304)
 -->
<!-- Title: Tree Pages: 1 -->
<svg width="1076pt" height="1028pt"
 viewBox="0.00 0.00 1076.00 1028.00" xmlns="http://www.w3.org/2000/svg" xmlns:xlink="http://www.w3.org/1999/xlink">
<g id="graph0" class="graph" transform="scale(1 1) rotate(0) translate(4 1024)">
<title>Tree</title>
<polygon fill="#ffffff" stroke="transparent" points="-4,4 -4,-1024 1072,-1024 1072,4 -4,4"/>
<!-- 0 -->
<g id="node1" class="node">
<title>0</title>
<path fill="#d8ecfa" stroke="#000000" d="M671.5,-1020C671.5,-1020 579.5,-1020 579.5,-1020 573.5,-1020 567.5,-1014 567.5,-1008 567.5,-1008 567.5,-949 567.5,-949 567.5,-943 573.5,-937 579.5,-937 579.5,-937 671.5,-937 671.5,-937 677.5,-937 683.5,-943 683.5,-949 683.5,-949 683.5,-1008 683.5,-1008 683.5,-1014 677.5,-1020 671.5,-1020"/>
<text text-anchor="start" x="576.5" y="-1004.8" font-family="Helvetica,sans-Serif" font-size="14.00" fill="#000000">Glucose ≤ 91.5</text>
<text text-anchor="start" x="587.5" y="-989.8" font-family="Helvetica,sans-Serif" font-size="14.00" fill="#000000">gini = 0.494</text>
<text text-anchor="start" x="581.5" y="-974.8" font-family="Helvetica,sans-Serif" font-size="14.00" fill="#000000">samples = 92</text>
<text text-anchor="start" x="575.5" y="-959.8" font-family="Helvetica,sans-Serif" font-size="14.00" fill="#000000">value = [41, 51]</text>
<text text-anchor="start" x="599" y="-944.8" font-family="Helvetica,sans-Serif" font-size="14.00" fill="#000000">class = l</text>
</g>
<!-- 1 -->
<g id="node2" class="node">
<title>1</title>
<path fill="#efb184" stroke="#000000" d="M604.5,-901C604.5,-901 512.5,-901 512.5,-901 506.5,-901 500.5,-895 500.5,-889 500.5,-889 500.5,-830 500.5,-830 500.5,-824 506.5,-818 512.5,-818 512.5,-818 604.5,-818 604.5,-818 610.5,-818 616.5,-824 616.5,-830 616.5,-830 616.5,-889 616.5,-889 616.5,-895 610.5,-901 604.5,-901"/>
<text text-anchor="start" x="511.5" y="-885.8" font-family="Helvetica,sans-Serif" font-size="14.00" fill="#000000">Insulin ≤ 3.207</text>
<text text-anchor="start" x="520.5" y="-870.8" font-family="Helvetica,sans-Serif" font-size="14.00" fill="#000000">gini = 0.399</text>
<text text-anchor="start" x="514.5" y="-855.8" font-family="Helvetica,sans-Serif" font-size="14.00" fill="#000000">samples = 40</text>
<text text-anchor="start" x="508.5" y="-840.8" font-family="Helvetica,sans-Serif" font-size="14.00" fill="#000000">value = [29, 11]</text>
<text text-anchor="start" x="528" y="-825.8" font-family="Helvetica,sans-Serif" font-size="14.00" fill="#000000">class = C</text>
</g>
<!-- 0&#45;&gt;1 -->
<g id="edge1" class="edge">
<title>0&#45;&gt;1</title>
<path fill="none" stroke="#000000" d="M602.0667,-936.8796C597.1987,-928.2335 592.0181,-919.0322 586.9914,-910.1042"/>
<polygon fill="#000000" stroke="#000000" points="589.9893,-908.2947 582.0334,-901.2981 583.8897,-911.729 589.9893,-908.2947"/>
<text text-anchor="middle" x="575.3022" y="-921.6749" font-family="Helvetica,sans-Serif" font-size="14.00" fill="#000000">True</text>
</g>
<!-- 18 -->
<g id="node19" class="node">
<title>18</title>
<path fill="#74baed" stroke="#000000" d="M738.5,-901C738.5,-901 646.5,-901 646.5,-901 640.5,-901 634.5,-895 634.5,-889 634.5,-889 634.5,-830 634.5,-830 634.5,-824 640.5,-818 646.5,-818 646.5,-818 738.5,-818 738.5,-818 744.5,-818 750.5,-824 750.5,-830 750.5,-830 750.5,-889 750.5,-889 750.5,-895 744.5,-901 738.5,-901"/>
<text text-anchor="start" x="646.5" y="-885.8" font-family="Helvetica,sans-Serif" font-size="14.00" fill="#000000">Leptin ≤ 7.933</text>
<text text-anchor="start" x="654.5" y="-870.8" font-family="Helvetica,sans-Serif" font-size="14.00" fill="#000000">gini = 0.355</text>
<text text-anchor="start" x="648.5" y="-855.8" font-family="Helvetica,sans-Serif" font-size="14.00" fill="#000000">samples = 52</text>
<text text-anchor="start" x="642.5" y="-840.8" font-family="Helvetica,sans-Serif" font-size="14.00" fill="#000000">value = [12, 40]</text>
<text text-anchor="start" x="666" y="-825.8" font-family="Helvetica,sans-Serif" font-size="14.00" fill="#000000">class = l</text>
</g>
<!-- 0&#45;&gt;18 -->
<g id="edge18" class="edge">
<title>0&#45;&gt;18</title>
<path fill="none" stroke="#000000" d="M648.9333,-936.8796C653.8013,-928.2335 658.9819,-919.0322 664.0086,-910.1042"/>
<polygon fill="#000000" stroke="#000000" points="667.1103,-911.729 668.9666,-901.2981 661.0107,-908.2947 667.1103,-911.729"/>
<text text-anchor="middle" x="675.6978" y="-921.6749" font-family="Helvetica,sans-Serif" font-size="14.00" fill="#000000">False</text>
</g>
<!-- 2 -->
<g id="node3" class="node">
<title>2</title>
<path fill="#399de5" stroke="#000000" d="M478,-774.5C478,-774.5 403,-774.5 403,-774.5 397,-774.5 391,-768.5 391,-762.5 391,-762.5 391,-718.5 391,-718.5 391,-712.5 397,-706.5 403,-706.5 403,-706.5 478,-706.5 478,-706.5 484,-706.5 490,-712.5 490,-718.5 490,-718.5 490,-762.5 490,-762.5 490,-768.5 484,-774.5 478,-774.5"/>
<text text-anchor="start" x="411" y="-759.3" font-family="Helvetica,sans-Serif" font-size="14.00" fill="#000000">gini = 0.0</text>
<text text-anchor="start" x="401" y="-744.3" font-family="Helvetica,sans-Serif" font-size="14.00" fill="#000000">samples = 5</text>
<text text-anchor="start" x="399" y="-729.3" font-family="Helvetica,sans-Serif" font-size="14.00" fill="#000000">value = [0, 5]</text>
<text text-anchor="start" x="414" y="-714.3" font-family="Helvetica,sans-Serif" font-size="14.00" fill="#000000">class = l</text>
</g>
<!-- 1&#45;&gt;2 -->
<g id="edge2" class="edge">
<title>1&#45;&gt;2</title>
<path fill="none" stroke="#000000" d="M517.2293,-817.8796C505.7805,-806.3337 493.3497,-793.7976 481.8938,-782.2446"/>
<polygon fill="#000000" stroke="#000000" points="484.0531,-779.4514 474.5266,-774.8149 479.0825,-784.3802 484.0531,-779.4514"/>
</g>
<!-- 3 -->
<g id="node4" class="node">
<title>3</title>
<path fill="#ea9b62" stroke="#000000" d="M607,-782C607,-782 520,-782 520,-782 514,-782 508,-776 508,-770 508,-770 508,-711 508,-711 508,-705 514,-699 520,-699 520,-699 607,-699 607,-699 613,-699 619,-705 619,-711 619,-711 619,-770 619,-770 619,-776 613,-782 607,-782"/>
<text text-anchor="start" x="516" y="-766.8" font-family="Helvetica,sans-Serif" font-size="14.00" fill="#000000">HOMA ≤ 5.788</text>
<text text-anchor="start" x="525.5" y="-751.8" font-family="Helvetica,sans-Serif" font-size="14.00" fill="#000000">gini = 0.284</text>
<text text-anchor="start" x="519.5" y="-736.8" font-family="Helvetica,sans-Serif" font-size="14.00" fill="#000000">samples = 35</text>
<text text-anchor="start" x="518" y="-721.8" font-family="Helvetica,sans-Serif" font-size="14.00" fill="#000000">value = [29, 6]</text>
<text text-anchor="start" x="533" y="-706.8" font-family="Helvetica,sans-Serif" font-size="14.00" fill="#000000">class = C</text>
</g>
<!-- 1&#45;&gt;3 -->
<g id="edge3" class="edge">
<title>1&#45;&gt;3</title>
<path fill="none" stroke="#000000" d="M560.2488,-817.8796C560.5931,-809.6838 560.9584,-800.9891 561.3151,-792.5013"/>
<polygon fill="#000000" stroke="#000000" points="564.8208,-792.4362 561.7438,-782.2981 557.827,-792.1423 564.8208,-792.4362"/>
</g>
<!-- 4 -->
<g id="node5" class="node">
<title>4</title>
<path fill="#e99254" stroke="#000000" d="M500.5,-663C500.5,-663 388.5,-663 388.5,-663 382.5,-663 376.5,-657 376.5,-651 376.5,-651 376.5,-592 376.5,-592 376.5,-586 382.5,-580 388.5,-580 388.5,-580 500.5,-580 500.5,-580 506.5,-580 512.5,-586 512.5,-592 512.5,-592 512.5,-651 512.5,-651 512.5,-657 506.5,-663 500.5,-663"/>
<text text-anchor="start" x="384.5" y="-647.8" font-family="Helvetica,sans-Serif" font-size="14.00" fill="#000000">MCP.1 ≤ 1477.261</text>
<text text-anchor="start" x="406.5" y="-632.8" font-family="Helvetica,sans-Serif" font-size="14.00" fill="#000000">gini = 0.213</text>
<text text-anchor="start" x="400.5" y="-617.8" font-family="Helvetica,sans-Serif" font-size="14.00" fill="#000000">samples = 33</text>
<text text-anchor="start" x="399" y="-602.8" font-family="Helvetica,sans-Serif" font-size="14.00" fill="#000000">value = [29, 4]</text>
<text text-anchor="start" x="414" y="-587.8" font-family="Helvetica,sans-Serif" font-size="14.00" fill="#000000">class = C</text>
</g>
<!-- 3&#45;&gt;4 -->
<g id="edge4" class="edge">
<title>3&#45;&gt;4</title>
<path fill="none" stroke="#000000" d="M521.8796,-698.8796C512.6931,-689.6931 502.8798,-679.8798 493.4336,-670.4336"/>
<polygon fill="#000000" stroke="#000000" points="495.8441,-667.8943 486.2981,-663.2981 490.8943,-672.8441 495.8441,-667.8943"/>
</g>
<!-- 17 -->
<g id="node18" class="node">
<title>17</title>
<path fill="#399de5" stroke="#000000" d="M618,-655.5C618,-655.5 543,-655.5 543,-655.5 537,-655.5 531,-649.5 531,-643.5 531,-643.5 531,-599.5 531,-599.5 531,-593.5 537,-587.5 543,-587.5 543,-587.5 618,-587.5 618,-587.5 624,-587.5 630,-593.5 630,-599.5 630,-599.5 630,-643.5 630,-643.5 630,-649.5 624,-655.5 618,-655.5"/>
<text text-anchor="start" x="551" y="-640.3" font-family="Helvetica,sans-Serif" font-size="14.00" fill="#000000">gini = 0.0</text>
<text text-anchor="start" x="541" y="-625.3" font-family="Helvetica,sans-Serif" font-size="14.00" fill="#000000">samples = 2</text>
<text text-anchor="start" x="539" y="-610.3" font-family="Helvetica,sans-Serif" font-size="14.00" fill="#000000">value = [0, 2]</text>
<text text-anchor="start" x="554" y="-595.3" font-family="Helvetica,sans-Serif" font-size="14.00" fill="#000000">class = l</text>
</g>
<!-- 3&#45;&gt;17 -->
<g id="edge17" class="edge">
<title>3&#45;&gt;17</title>
<path fill="none" stroke="#000000" d="M569.4458,-698.8796C570.9695,-688.2134 572.614,-676.7021 574.1569,-665.9015"/>
<polygon fill="#000000" stroke="#000000" points="577.6484,-666.2094 575.5979,-655.8149 570.7187,-665.2194 577.6484,-666.2094"/>
</g>
<!-- 5 -->
<g id="node6" class="node">
<title>5</title>
<path fill="#e88e4d" stroke="#000000" d="M384.5,-544C384.5,-544 280.5,-544 280.5,-544 274.5,-544 268.5,-538 268.5,-532 268.5,-532 268.5,-473 268.5,-473 268.5,-467 274.5,-461 280.5,-461 280.5,-461 384.5,-461 384.5,-461 390.5,-461 396.5,-467 396.5,-473 396.5,-473 396.5,-532 396.5,-532 396.5,-538 390.5,-544 384.5,-544"/>
<text text-anchor="start" x="276.5" y="-528.8" font-family="Helvetica,sans-Serif" font-size="14.00" fill="#000000">Resistin ≤ 26.318</text>
<text text-anchor="start" x="299" y="-513.8" font-family="Helvetica,sans-Serif" font-size="14.00" fill="#000000">gini = 0.17</text>
<text text-anchor="start" x="288.5" y="-498.8" font-family="Helvetica,sans-Serif" font-size="14.00" fill="#000000">samples = 32</text>
<text text-anchor="start" x="287" y="-483.8" font-family="Helvetica,sans-Serif" font-size="14.00" fill="#000000">value = [29, 3]</text>
<text text-anchor="start" x="302" y="-468.8" font-family="Helvetica,sans-Serif" font-size="14.00" fill="#000000">class = C</text>
</g>
<!-- 4&#45;&gt;5 -->
<g id="edge5" class="edge">
<title>4&#45;&gt;5</title>
<path fill="none" stroke="#000000" d="M405.3278,-579.8796C396.7665,-570.7832 387.6268,-561.0722 378.8168,-551.7116"/>
<polygon fill="#000000" stroke="#000000" points="381.2417,-549.1813 371.8394,-544.2981 376.1443,-553.9789 381.2417,-549.1813"/>
</g>
<!-- 16 -->
<g id="node17" class="node">
<title>16</title>
<path fill="#399de5" stroke="#000000" d="M502,-536.5C502,-536.5 427,-536.5 427,-536.5 421,-536.5 415,-530.5 415,-524.5 415,-524.5 415,-480.5 415,-480.5 415,-474.5 421,-468.5 427,-468.5 427,-468.5 502,-468.5 502,-468.5 508,-468.5 514,-474.5 514,-480.5 514,-480.5 514,-524.5 514,-524.5 514,-530.5 508,-536.5 502,-536.5"/>
<text text-anchor="start" x="435" y="-521.3" font-family="Helvetica,sans-Serif" font-size="14.00" fill="#000000">gini = 0.0</text>
<text text-anchor="start" x="425" y="-506.3" font-family="Helvetica,sans-Serif" font-size="14.00" fill="#000000">samples = 1</text>
<text text-anchor="start" x="423" y="-491.3" font-family="Helvetica,sans-Serif" font-size="14.00" fill="#000000">value = [0, 1]</text>
<text text-anchor="start" x="438" y="-476.3" font-family="Helvetica,sans-Serif" font-size="14.00" fill="#000000">class = l</text>
</g>
<!-- 4&#45;&gt;16 -->
<g id="edge16" class="edge">
<title>4&#45;&gt;16</title>
<path fill="none" stroke="#000000" d="M451.495,-579.8796C453.2877,-569.2134 455.2223,-557.7021 457.0376,-546.9015"/>
<polygon fill="#000000" stroke="#000000" points="460.5269,-547.2568 458.7328,-536.8149 453.6237,-546.0965 460.5269,-547.2568"/>
</g>
<!-- 6 -->
<g id="node7" class="node">
<title>6</title>
<path fill="#e78a47" stroke="#000000" d="M321.5,-425C321.5,-425 237.5,-425 237.5,-425 231.5,-425 225.5,-419 225.5,-413 225.5,-413 225.5,-354 225.5,-354 225.5,-348 231.5,-342 237.5,-342 237.5,-342 321.5,-342 321.5,-342 327.5,-342 333.5,-348 333.5,-354 333.5,-354 333.5,-413 333.5,-413 333.5,-419 327.5,-425 321.5,-425"/>
<text text-anchor="start" x="233.5" y="-409.8" font-family="Helvetica,sans-Serif" font-size="14.00" fill="#000000">Leptin ≤ 8.784</text>
<text text-anchor="start" x="241.5" y="-394.8" font-family="Helvetica,sans-Serif" font-size="14.00" fill="#000000">gini = 0.121</text>
<text text-anchor="start" x="235.5" y="-379.8" font-family="Helvetica,sans-Serif" font-size="14.00" fill="#000000">samples = 31</text>
<text text-anchor="start" x="234" y="-364.8" font-family="Helvetica,sans-Serif" font-size="14.00" fill="#000000">value = [29, 2]</text>
<text text-anchor="start" x="249" y="-349.8" font-family="Helvetica,sans-Serif" font-size="14.00" fill="#000000">class = C</text>
</g>
<!-- 5&#45;&gt;6 -->
<g id="edge6" class="edge">
<title>5&#45;&gt;6</title>
<path fill="none" stroke="#000000" d="M313.9632,-460.8796C310.1926,-452.4136 306.185,-443.4153 302.2867,-434.6626"/>
<polygon fill="#000000" stroke="#000000" points="305.3817,-433.009 298.1159,-425.2981 298.9873,-435.857 305.3817,-433.009"/>
</g>
<!-- 15 -->
<g id="node16" class="node">
<title>15</title>
<path fill="#399de5" stroke="#000000" d="M439,-417.5C439,-417.5 364,-417.5 364,-417.5 358,-417.5 352,-411.5 352,-405.5 352,-405.5 352,-361.5 352,-361.5 352,-355.5 358,-349.5 364,-349.5 364,-349.5 439,-349.5 439,-349.5 445,-349.5 451,-355.5 451,-361.5 451,-361.5 451,-405.5 451,-405.5 451,-411.5 445,-417.5 439,-417.5"/>
<text text-anchor="start" x="372" y="-402.3" font-family="Helvetica,sans-Serif" font-size="14.00" fill="#000000">gini = 0.0</text>
<text text-anchor="start" x="362" y="-387.3" font-family="Helvetica,sans-Serif" font-size="14.00" fill="#000000">samples = 1</text>
<text text-anchor="start" x="360" y="-372.3" font-family="Helvetica,sans-Serif" font-size="14.00" fill="#000000">value = [0, 1]</text>
<text text-anchor="start" x="375" y="-357.3" font-family="Helvetica,sans-Serif" font-size="14.00" fill="#000000">class = l</text>
</g>
<!-- 5&#45;&gt;15 -->
<g id="edge15" class="edge">
<title>5&#45;&gt;15</title>
<path fill="none" stroke="#000000" d="M356.6329,-460.8796C363.0725,-449.7735 370.0434,-437.7513 376.5271,-426.5691"/>
<polygon fill="#000000" stroke="#000000" points="379.6148,-428.2215 381.6031,-417.8149 373.5591,-424.7102 379.6148,-428.2215"/>
</g>
<!-- 7 -->
<g id="node8" class="node">
<title>7</title>
<path fill="#f2c09c" stroke="#000000" d="M206.5,-306C206.5,-306 122.5,-306 122.5,-306 116.5,-306 110.5,-300 110.5,-294 110.5,-294 110.5,-235 110.5,-235 110.5,-229 116.5,-223 122.5,-223 122.5,-223 206.5,-223 206.5,-223 212.5,-223 218.5,-229 218.5,-235 218.5,-235 218.5,-294 218.5,-294 218.5,-300 212.5,-306 206.5,-306"/>
<text text-anchor="start" x="118.5" y="-290.8" font-family="Helvetica,sans-Serif" font-size="14.00" fill="#000000">Leptin ≤ 7.826</text>
<text text-anchor="start" x="126.5" y="-275.8" font-family="Helvetica,sans-Serif" font-size="14.00" fill="#000000">gini = 0.444</text>
<text text-anchor="start" x="125" y="-260.8" font-family="Helvetica,sans-Serif" font-size="14.00" fill="#000000">samples = 3</text>
<text text-anchor="start" x="123" y="-245.8" font-family="Helvetica,sans-Serif" font-size="14.00" fill="#000000">value = [2, 1]</text>
<text text-anchor="start" x="134" y="-230.8" font-family="Helvetica,sans-Serif" font-size="14.00" fill="#000000">class = C</text>
</g>
<!-- 6&#45;&gt;7 -->
<g id="edge7" class="edge">
<title>6&#45;&gt;7</title>
<path fill="none" stroke="#000000" d="M239.2786,-341.8796C230.488,-332.7832 221.1034,-323.0722 212.0574,-313.7116"/>
<polygon fill="#000000" stroke="#000000" points="214.3591,-311.0568 204.8931,-306.2981 209.3255,-315.9212 214.3591,-311.0568"/>
</g>
<!-- 10 -->
<g id="node11" class="node">
<title>10</title>
<path fill="#e68640" stroke="#000000" d="M338.5,-306C338.5,-306 248.5,-306 248.5,-306 242.5,-306 236.5,-300 236.5,-294 236.5,-294 236.5,-235 236.5,-235 236.5,-229 242.5,-223 248.5,-223 248.5,-223 338.5,-223 338.5,-223 344.5,-223 350.5,-229 350.5,-235 350.5,-235 350.5,-294 350.5,-294 350.5,-300 344.5,-306 338.5,-306"/>
<text text-anchor="start" x="244.5" y="-290.8" font-family="Helvetica,sans-Serif" font-size="14.00" fill="#000000">Glucose ≤ 89.5</text>
<text text-anchor="start" x="255.5" y="-275.8" font-family="Helvetica,sans-Serif" font-size="14.00" fill="#000000">gini = 0.069</text>
<text text-anchor="start" x="249.5" y="-260.8" font-family="Helvetica,sans-Serif" font-size="14.00" fill="#000000">samples = 28</text>
<text text-anchor="start" x="248" y="-245.8" font-family="Helvetica,sans-Serif" font-size="14.00" fill="#000000">value = [27, 1]</text>
<text text-anchor="start" x="263" y="-230.8" font-family="Helvetica,sans-Serif" font-size="14.00" fill="#000000">class = C</text>
</g>
<!-- 6&#45;&gt;10 -->
<g id="edge10" class="edge">
<title>6&#45;&gt;10</title>
<path fill="none" stroke="#000000" d="M284.3965,-341.8796C285.3607,-333.6838 286.3836,-324.9891 287.3822,-316.5013"/>
<polygon fill="#000000" stroke="#000000" points="290.8901,-316.6386 288.5826,-306.2981 283.9381,-315.8206 290.8901,-316.6386"/>
</g>
<!-- 8 -->
<g id="node9" class="node">
<title>8</title>
<path fill="#e58139" stroke="#000000" d="M87,-179.5C87,-179.5 12,-179.5 12,-179.5 6,-179.5 0,-173.5 0,-167.5 0,-167.5 0,-123.5 0,-123.5 0,-117.5 6,-111.5 12,-111.5 12,-111.5 87,-111.5 87,-111.5 93,-111.5 99,-117.5 99,-123.5 99,-123.5 99,-167.5 99,-167.5 99,-173.5 93,-179.5 87,-179.5"/>
<text text-anchor="start" x="20" y="-164.3" font-family="Helvetica,sans-Serif" font-size="14.00" fill="#000000">gini = 0.0</text>
<text text-anchor="start" x="10" y="-149.3" font-family="Helvetica,sans-Serif" font-size="14.00" fill="#000000">samples = 2</text>
<text text-anchor="start" x="8" y="-134.3" font-family="Helvetica,sans-Serif" font-size="14.00" fill="#000000">value = [2, 0]</text>
<text text-anchor="start" x="19" y="-119.3" font-family="Helvetica,sans-Serif" font-size="14.00" fill="#000000">class = C</text>
</g>
<!-- 7&#45;&gt;8 -->
<g id="edge8" class="edge">
<title>7&#45;&gt;8</title>
<path fill="none" stroke="#000000" d="M124.2786,-222.8796C113.1208,-211.3337 101.0061,-198.7976 89.8414,-187.2446"/>
<polygon fill="#000000" stroke="#000000" points="92.1275,-184.5736 82.6615,-179.8149 87.0939,-189.4381 92.1275,-184.5736"/>
</g>
<!-- 9 -->
<g id="node10" class="node">
<title>9</title>
<path fill="#399de5" stroke="#000000" d="M204,-179.5C204,-179.5 129,-179.5 129,-179.5 123,-179.5 117,-173.5 117,-167.5 117,-167.5 117,-123.5 117,-123.5 117,-117.5 123,-111.5 129,-111.5 129,-111.5 204,-111.5 204,-111.5 210,-111.5 216,-117.5 216,-123.5 216,-123.5 216,-167.5 216,-167.5 216,-173.5 210,-179.5 204,-179.5"/>
<text text-anchor="start" x="137" y="-164.3" font-family="Helvetica,sans-Serif" font-size="14.00" fill="#000000">gini = 0.0</text>
<text text-anchor="start" x="127" y="-149.3" font-family="Helvetica,sans-Serif" font-size="14.00" fill="#000000">samples = 1</text>
<text text-anchor="start" x="125" y="-134.3" font-family="Helvetica,sans-Serif" font-size="14.00" fill="#000000">value = [0, 1]</text>
<text text-anchor="start" x="140" y="-119.3" font-family="Helvetica,sans-Serif" font-size="14.00" fill="#000000">class = l</text>
</g>
<!-- 7&#45;&gt;9 -->
<g id="edge9" class="edge">
<title>7&#45;&gt;9</title>
<path fill="none" stroke="#000000" d="M165.1995,-222.8796C165.3788,-212.2134 165.5722,-200.7021 165.7538,-189.9015"/>
<polygon fill="#000000" stroke="#000000" points="169.2546,-189.8724 165.9233,-179.8149 162.2556,-189.7547 169.2546,-189.8724"/>
</g>
<!-- 11 -->
<g id="node12" class="node">
<title>11</title>
<path fill="#e58139" stroke="#000000" d="M333,-179.5C333,-179.5 250,-179.5 250,-179.5 244,-179.5 238,-173.5 238,-167.5 238,-167.5 238,-123.5 238,-123.5 238,-117.5 244,-111.5 250,-111.5 250,-111.5 333,-111.5 333,-111.5 339,-111.5 345,-117.5 345,-123.5 345,-123.5 345,-167.5 345,-167.5 345,-173.5 339,-179.5 333,-179.5"/>
<text text-anchor="start" x="262" y="-164.3" font-family="Helvetica,sans-Serif" font-size="14.00" fill="#000000">gini = 0.0</text>
<text text-anchor="start" x="247.5" y="-149.3" font-family="Helvetica,sans-Serif" font-size="14.00" fill="#000000">samples = 22</text>
<text text-anchor="start" x="246" y="-134.3" font-family="Helvetica,sans-Serif" font-size="14.00" fill="#000000">value = [22, 0]</text>
<text text-anchor="start" x="261" y="-119.3" font-family="Helvetica,sans-Serif" font-size="14.00" fill="#000000">class = C</text>
</g>
<!-- 10&#45;&gt;11 -->
<g id="edge11" class="edge">
<title>10&#45;&gt;11</title>
<path fill="none" stroke="#000000" d="M292.8005,-222.8796C292.6212,-212.2134 292.4278,-200.7021 292.2462,-189.9015"/>
<polygon fill="#000000" stroke="#000000" points="295.7444,-189.7547 292.0767,-179.8149 288.7454,-189.8724 295.7444,-189.7547"/>
</g>
<!-- 12 -->
<g id="node13" class="node">
<title>12</title>
<path fill="#ea9a61" stroke="#000000" d="M496,-187C496,-187 375,-187 375,-187 369,-187 363,-181 363,-175 363,-175 363,-116 363,-116 363,-110 369,-104 375,-104 375,-104 496,-104 496,-104 502,-104 508,-110 508,-116 508,-116 508,-175 508,-175 508,-181 502,-187 496,-187"/>
<text text-anchor="start" x="371" y="-171.8" font-family="Helvetica,sans-Serif" font-size="14.00" fill="#000000">Adiponectin ≤ 6.806</text>
<text text-anchor="start" x="397.5" y="-156.8" font-family="Helvetica,sans-Serif" font-size="14.00" fill="#000000">gini = 0.278</text>
<text text-anchor="start" x="396" y="-141.8" font-family="Helvetica,sans-Serif" font-size="14.00" fill="#000000">samples = 6</text>
<text text-anchor="start" x="394" y="-126.8" font-family="Helvetica,sans-Serif" font-size="14.00" fill="#000000">value = [5, 1]</text>
<text text-anchor="start" x="405" y="-111.8" font-family="Helvetica,sans-Serif" font-size="14.00" fill="#000000">class = C</text>
</g>
<!-- 10&#45;&gt;12 -->
<g id="edge12" class="edge">
<title>10&#45;&gt;12</title>
<path fill="none" stroke="#000000" d="M343.1647,-222.8796C354.3416,-213.513 366.2962,-203.4948 377.7712,-193.8784"/>
<polygon fill="#000000" stroke="#000000" points="380.2069,-196.4037 385.6233,-187.2981 375.7107,-191.0386 380.2069,-196.4037"/>
</g>
<!-- 13 -->
<g id="node14" class="node">
<title>13</title>
<path fill="#399de5" stroke="#000000" d="M399,-68C399,-68 324,-68 324,-68 318,-68 312,-62 312,-56 312,-56 312,-12 312,-12 312,-6 318,0 324,0 324,0 399,0 399,0 405,0 411,-6 411,-12 411,-12 411,-56 411,-56 411,-62 405,-68 399,-68"/>
<text text-anchor="start" x="332" y="-52.8" font-family="Helvetica,sans-Serif" font-size="14.00" fill="#000000">gini = 0.0</text>
<text text-anchor="start" x="322" y="-37.8" font-family="Helvetica,sans-Serif" font-size="14.00" fill="#000000">samples = 1</text>
<text text-anchor="start" x="320" y="-22.8" font-family="Helvetica,sans-Serif" font-size="14.00" fill="#000000">value = [0, 1]</text>
<text text-anchor="start" x="335" y="-7.8" font-family="Helvetica,sans-Serif" font-size="14.00" fill="#000000">class = l</text>
</g>
<!-- 12&#45;&gt;13 -->
<g id="edge13" class="edge">
<title>12&#45;&gt;13</title>
<path fill="none" stroke="#000000" d="M407.9451,-103.9815C402.0285,-95.0666 395.7665,-85.6313 389.8213,-76.6734"/>
<polygon fill="#000000" stroke="#000000" points="392.686,-74.6602 384.24,-68.2637 386.8536,-78.5311 392.686,-74.6602"/>
</g>
<!-- 14 -->
<g id="node15" class="node">
<title>14</title>
<path fill="#e58139" stroke="#000000" d="M516,-68C516,-68 441,-68 441,-68 435,-68 429,-62 429,-56 429,-56 429,-12 429,-12 429,-6 435,0 441,0 441,0 516,0 516,0 522,0 528,-6 528,-12 528,-12 528,-56 528,-56 528,-62 522,-68 516,-68"/>
<text text-anchor="start" x="449" y="-52.8" font-family="Helvetica,sans-Serif" font-size="14.00" fill="#000000">gini = 0.0</text>
<text text-anchor="start" x="439" y="-37.8" font-family="Helvetica,sans-Serif" font-size="14.00" fill="#000000">samples = 5</text>
<text text-anchor="start" x="437" y="-22.8" font-family="Helvetica,sans-Serif" font-size="14.00" fill="#000000">value = [5, 0]</text>
<text text-anchor="start" x="448" y="-7.8" font-family="Helvetica,sans-Serif" font-size="14.00" fill="#000000">class = C</text>
</g>
<!-- 12&#45;&gt;14 -->
<g id="edge14" class="edge">
<title>12&#45;&gt;14</title>
<path fill="none" stroke="#000000" d="M451.5116,-103.9815C454.8079,-95.4342 458.2886,-86.4086 461.6147,-77.7839"/>
<polygon fill="#000000" stroke="#000000" points="464.9535,-78.8533 465.2862,-68.2637 458.4224,-76.3345 464.9535,-78.8533"/>
</g>
<!-- 19 -->
<g id="node20" class="node">
<title>19</title>
<path fill="#e58139" stroke="#000000" d="M727,-774.5C727,-774.5 652,-774.5 652,-774.5 646,-774.5 640,-768.5 640,-762.5 640,-762.5 640,-718.5 640,-718.5 640,-712.5 646,-706.5 652,-706.5 652,-706.5 727,-706.5 727,-706.5 733,-706.5 739,-712.5 739,-718.5 739,-718.5 739,-762.5 739,-762.5 739,-768.5 733,-774.5 727,-774.5"/>
<text text-anchor="start" x="660" y="-759.3" font-family="Helvetica,sans-Serif" font-size="14.00" fill="#000000">gini = 0.0</text>
<text text-anchor="start" x="650" y="-744.3" font-family="Helvetica,sans-Serif" font-size="14.00" fill="#000000">samples = 3</text>
<text text-anchor="start" x="648" y="-729.3" font-family="Helvetica,sans-Serif" font-size="14.00" fill="#000000">value = [3, 0]</text>
<text text-anchor="start" x="659" y="-714.3" font-family="Helvetica,sans-Serif" font-size="14.00" fill="#000000">class = C</text>
</g>
<!-- 18&#45;&gt;19 -->
<g id="edge19" class="edge">
<title>18&#45;&gt;19</title>
<path fill="none" stroke="#000000" d="M691.4507,-817.8796C691.1818,-807.2134 690.8916,-795.7021 690.6194,-784.9015"/>
<polygon fill="#000000" stroke="#000000" points="694.1161,-784.7235 690.3651,-774.8149 687.1183,-784.9 694.1161,-784.7235"/>
</g>
<!-- 20 -->
<g id="node21" class="node">
<title>20</title>
<path fill="#66b3eb" stroke="#000000" d="M852,-782C852,-782 769,-782 769,-782 763,-782 757,-776 757,-770 757,-770 757,-711 757,-711 757,-705 763,-699 769,-699 769,-699 852,-699 852,-699 858,-699 864,-705 864,-711 864,-711 864,-770 864,-770 864,-776 858,-782 852,-782"/>
<text text-anchor="start" x="767.5" y="-766.8" font-family="Helvetica,sans-Serif" font-size="14.00" fill="#000000">BMI ≤ 36.131</text>
<text text-anchor="start" x="781" y="-751.8" font-family="Helvetica,sans-Serif" font-size="14.00" fill="#000000">gini = 0.3</text>
<text text-anchor="start" x="766.5" y="-736.8" font-family="Helvetica,sans-Serif" font-size="14.00" fill="#000000">samples = 49</text>
<text text-anchor="start" x="765" y="-721.8" font-family="Helvetica,sans-Serif" font-size="14.00" fill="#000000">value = [9, 40]</text>
<text text-anchor="start" x="784" y="-706.8" font-family="Helvetica,sans-Serif" font-size="14.00" fill="#000000">class = l</text>
</g>
<!-- 18&#45;&gt;20 -->
<g id="edge20" class="edge">
<title>18&#45;&gt;20</title>
<path fill="none" stroke="#000000" d="M733.7707,-817.8796C742.8799,-808.6931 752.6108,-798.8798 761.9776,-789.4336"/>
<polygon fill="#000000" stroke="#000000" points="764.4973,-791.8634 769.0532,-782.2981 759.5267,-786.9345 764.4973,-791.8634"/>
</g>
<!-- 21 -->
<g id="node22" class="node">
<title>21</title>
<path fill="#57ace9" stroke="#000000" d="M823.5,-663C823.5,-663 719.5,-663 719.5,-663 713.5,-663 707.5,-657 707.5,-651 707.5,-651 707.5,-592 707.5,-592 707.5,-586 713.5,-580 719.5,-580 719.5,-580 823.5,-580 823.5,-580 829.5,-580 835.5,-586 835.5,-592 835.5,-592 835.5,-651 835.5,-651 835.5,-657 829.5,-663 823.5,-663"/>
<text text-anchor="start" x="715.5" y="-647.8" font-family="Helvetica,sans-Serif" font-size="14.00" fill="#000000">MCP.1 ≤ 387.508</text>
<text text-anchor="start" x="733.5" y="-632.8" font-family="Helvetica,sans-Serif" font-size="14.00" fill="#000000">gini = 0.231</text>
<text text-anchor="start" x="727.5" y="-617.8" font-family="Helvetica,sans-Serif" font-size="14.00" fill="#000000">samples = 45</text>
<text text-anchor="start" x="726" y="-602.8" font-family="Helvetica,sans-Serif" font-size="14.00" fill="#000000">value = [6, 39]</text>
<text text-anchor="start" x="745" y="-587.8" font-family="Helvetica,sans-Serif" font-size="14.00" fill="#000000">class = l</text>
</g>
<!-- 20&#45;&gt;21 -->
<g id="edge21" class="edge">
<title>20&#45;&gt;21</title>
<path fill="none" stroke="#000000" d="M796.8597,-698.8796C794.1147,-690.5037 791.1988,-681.6067 788.3591,-672.942"/>
<polygon fill="#000000" stroke="#000000" points="791.6389,-671.7107 785.1985,-663.2981 784.987,-673.8908 791.6389,-671.7107"/>
</g>
<!-- 32 -->
<g id="node33" class="node">
<title>32</title>
<path fill="#eeab7b" stroke="#000000" d="M943.5,-663C943.5,-663 865.5,-663 865.5,-663 859.5,-663 853.5,-657 853.5,-651 853.5,-651 853.5,-592 853.5,-592 853.5,-586 859.5,-580 865.5,-580 865.5,-580 943.5,-580 943.5,-580 949.5,-580 955.5,-586 955.5,-592 955.5,-592 955.5,-651 955.5,-651 955.5,-657 949.5,-663 943.5,-663"/>
<text text-anchor="start" x="861.5" y="-647.8" font-family="Helvetica,sans-Serif" font-size="14.00" fill="#000000">Insulin ≤ 6.17</text>
<text text-anchor="start" x="866.5" y="-632.8" font-family="Helvetica,sans-Serif" font-size="14.00" fill="#000000">gini = 0.375</text>
<text text-anchor="start" x="865" y="-617.8" font-family="Helvetica,sans-Serif" font-size="14.00" fill="#000000">samples = 4</text>
<text text-anchor="start" x="863" y="-602.8" font-family="Helvetica,sans-Serif" font-size="14.00" fill="#000000">value = [3, 1]</text>
<text text-anchor="start" x="874" y="-587.8" font-family="Helvetica,sans-Serif" font-size="14.00" fill="#000000">class = C</text>
</g>
<!-- 20&#45;&gt;32 -->
<g id="edge32" class="edge">
<title>20&#45;&gt;32</title>
<path fill="none" stroke="#000000" d="M843.3766,-698.8796C850.4197,-689.9633 857.9293,-680.4565 865.1874,-671.268"/>
<polygon fill="#000000" stroke="#000000" points="868.0309,-673.3147 871.483,-663.2981 862.5379,-668.9757 868.0309,-673.3147"/>
</g>
<!-- 22 -->
<g id="node23" class="node">
<title>22</title>
<path fill="#83c2ef" stroke="#000000" d="M691,-544C691,-544 570,-544 570,-544 564,-544 558,-538 558,-532 558,-532 558,-473 558,-473 558,-467 564,-461 570,-461 570,-461 691,-461 691,-461 697,-461 703,-467 703,-473 703,-473 703,-532 703,-532 703,-538 697,-544 691,-544"/>
<text text-anchor="start" x="566" y="-528.8" font-family="Helvetica,sans-Serif" font-size="14.00" fill="#000000">Adiponectin ≤ 9.348</text>
<text text-anchor="start" x="592.5" y="-513.8" font-family="Helvetica,sans-Serif" font-size="14.00" fill="#000000">gini = 0.397</text>
<text text-anchor="start" x="586.5" y="-498.8" font-family="Helvetica,sans-Serif" font-size="14.00" fill="#000000">samples = 22</text>
<text text-anchor="start" x="585" y="-483.8" font-family="Helvetica,sans-Serif" font-size="14.00" fill="#000000">value = [6, 16]</text>
<text text-anchor="start" x="604" y="-468.8" font-family="Helvetica,sans-Serif" font-size="14.00" fill="#000000">class = l</text>
</g>
<!-- 21&#45;&gt;22 -->
<g id="edge22" class="edge">
<title>21&#45;&gt;22</title>
<path fill="none" stroke="#000000" d="M722.185,-579.8796C711.0868,-570.513 699.2165,-560.4948 687.8223,-550.8784"/>
<polygon fill="#000000" stroke="#000000" points="689.925,-548.0731 680.0254,-544.2981 685.4101,-553.4225 689.925,-548.0731"/>
</g>
<!-- 31 -->
<g id="node32" class="node">
<title>31</title>
<path fill="#399de5" stroke="#000000" d="M816,-536.5C816,-536.5 733,-536.5 733,-536.5 727,-536.5 721,-530.5 721,-524.5 721,-524.5 721,-480.5 721,-480.5 721,-474.5 727,-468.5 733,-468.5 733,-468.5 816,-468.5 816,-468.5 822,-468.5 828,-474.5 828,-480.5 828,-480.5 828,-524.5 828,-524.5 828,-530.5 822,-536.5 816,-536.5"/>
<text text-anchor="start" x="745" y="-521.3" font-family="Helvetica,sans-Serif" font-size="14.00" fill="#000000">gini = 0.0</text>
<text text-anchor="start" x="730.5" y="-506.3" font-family="Helvetica,sans-Serif" font-size="14.00" fill="#000000">samples = 23</text>
<text text-anchor="start" x="729" y="-491.3" font-family="Helvetica,sans-Serif" font-size="14.00" fill="#000000">value = [0, 23]</text>
<text text-anchor="start" x="748" y="-476.3" font-family="Helvetica,sans-Serif" font-size="14.00" fill="#000000">class = l</text>
</g>
<!-- 21&#45;&gt;31 -->
<g id="edge31" class="edge">
<title>21&#45;&gt;31</title>
<path fill="none" stroke="#000000" d="M772.5493,-579.8796C772.8182,-569.2134 773.1084,-557.7021 773.3806,-546.9015"/>
<polygon fill="#000000" stroke="#000000" points="776.8817,-546.9 773.6349,-536.8149 769.8839,-546.7235 776.8817,-546.9"/>
</g>
<!-- 23 -->
<g id="node24" class="node">
<title>23</title>
<path fill="#ffffff" stroke="#000000" d="M594.5,-425C594.5,-425 502.5,-425 502.5,-425 496.5,-425 490.5,-419 490.5,-413 490.5,-413 490.5,-354 490.5,-354 490.5,-348 496.5,-342 502.5,-342 502.5,-342 594.5,-342 594.5,-342 600.5,-342 606.5,-348 606.5,-354 606.5,-354 606.5,-413 606.5,-413 606.5,-419 600.5,-425 594.5,-425"/>
<text text-anchor="start" x="498.5" y="-409.8" font-family="Helvetica,sans-Serif" font-size="14.00" fill="#000000">Leptin ≤ 19.951</text>
<text text-anchor="start" x="519" y="-394.8" font-family="Helvetica,sans-Serif" font-size="14.00" fill="#000000">gini = 0.5</text>
<text text-anchor="start" x="504.5" y="-379.8" font-family="Helvetica,sans-Serif" font-size="14.00" fill="#000000">samples = 12</text>
<text text-anchor="start" x="507" y="-364.8" font-family="Helvetica,sans-Serif" font-size="14.00" fill="#000000">value = [6, 6]</text>
<text text-anchor="start" x="518" y="-349.8" font-family="Helvetica,sans-Serif" font-size="14.00" fill="#000000">class = C</text>
</g>
<!-- 22&#45;&gt;23 -->
<g id="edge23" class="edge">
<title>22&#45;&gt;23</title>
<path fill="none" stroke="#000000" d="M601.8204,-460.8796C595.7385,-452.0534 589.2578,-442.6485 582.9859,-433.5466"/>
<polygon fill="#000000" stroke="#000000" points="585.8582,-431.5465 577.302,-425.2981 580.0941,-435.5184 585.8582,-431.5465"/>
</g>
<!-- 30 -->
<g id="node31" class="node">
<title>30</title>
<path fill="#399de5" stroke="#000000" d="M720,-417.5C720,-417.5 637,-417.5 637,-417.5 631,-417.5 625,-411.5 625,-405.5 625,-405.5 625,-361.5 625,-361.5 625,-355.5 631,-349.5 637,-349.5 637,-349.5 720,-349.5 720,-349.5 726,-349.5 732,-355.5 732,-361.5 732,-361.5 732,-405.5 732,-405.5 732,-411.5 726,-417.5 720,-417.5"/>
<text text-anchor="start" x="649" y="-402.3" font-family="Helvetica,sans-Serif" font-size="14.00" fill="#000000">gini = 0.0</text>
<text text-anchor="start" x="634.5" y="-387.3" font-family="Helvetica,sans-Serif" font-size="14.00" fill="#000000">samples = 10</text>
<text text-anchor="start" x="633" y="-372.3" font-family="Helvetica,sans-Serif" font-size="14.00" fill="#000000">value = [0, 10]</text>
<text text-anchor="start" x="652" y="-357.3" font-family="Helvetica,sans-Serif" font-size="14.00" fill="#000000">class = l</text>
</g>
<!-- 22&#45;&gt;30 -->
<g id="edge30" class="edge">
<title>22&#45;&gt;30</title>
<path fill="none" stroke="#000000" d="M647.2881,-460.8796C651.6791,-449.9935 656.4252,-438.227 660.8592,-427.2344"/>
<polygon fill="#000000" stroke="#000000" points="664.1638,-428.3982 664.6587,-417.8149 657.672,-425.7796 664.1638,-428.3982"/>
</g>
<!-- 24 -->
<g id="node25" class="node">
<title>24</title>
<path fill="#399de5" stroke="#000000" d="M558,-298.5C558,-298.5 483,-298.5 483,-298.5 477,-298.5 471,-292.5 471,-286.5 471,-286.5 471,-242.5 471,-242.5 471,-236.5 477,-230.5 483,-230.5 483,-230.5 558,-230.5 558,-230.5 564,-230.5 570,-236.5 570,-242.5 570,-242.5 570,-286.5 570,-286.5 570,-292.5 564,-298.5 558,-298.5"/>
<text text-anchor="start" x="491" y="-283.3" font-family="Helvetica,sans-Serif" font-size="14.00" fill="#000000">gini = 0.0</text>
<text text-anchor="start" x="481" y="-268.3" font-family="Helvetica,sans-Serif" font-size="14.00" fill="#000000">samples = 4</text>
<text text-anchor="start" x="479" y="-253.3" font-family="Helvetica,sans-Serif" font-size="14.00" fill="#000000">value = [0, 4]</text>
<text text-anchor="start" x="494" y="-238.3" font-family="Helvetica,sans-Serif" font-size="14.00" fill="#000000">class = l</text>
</g>
<!-- 23&#45;&gt;24 -->
<g id="edge24" class="edge">
<title>23&#45;&gt;24</title>
<path fill="none" stroke="#000000" d="M538.707,-341.8796C536.1714,-331.1034 533.4329,-319.4647 530.8689,-308.5677"/>
<polygon fill="#000000" stroke="#000000" points="534.2715,-307.7474 528.5741,-298.8149 527.4576,-309.3508 534.2715,-307.7474"/>
</g>
<!-- 25 -->
<g id="node26" class="node">
<title>25</title>
<path fill="#eeab7b" stroke="#000000" d="M687,-306C687,-306 600,-306 600,-306 594,-306 588,-300 588,-294 588,-294 588,-235 588,-235 588,-229 594,-223 600,-223 600,-223 687,-223 687,-223 693,-223 699,-229 699,-235 699,-235 699,-294 699,-294 699,-300 693,-306 687,-306"/>
<text text-anchor="start" x="596" y="-290.8" font-family="Helvetica,sans-Serif" font-size="14.00" fill="#000000">HOMA ≤ 3.379</text>
<text text-anchor="start" x="605.5" y="-275.8" font-family="Helvetica,sans-Serif" font-size="14.00" fill="#000000">gini = 0.375</text>
<text text-anchor="start" x="604" y="-260.8" font-family="Helvetica,sans-Serif" font-size="14.00" fill="#000000">samples = 8</text>
<text text-anchor="start" x="602" y="-245.8" font-family="Helvetica,sans-Serif" font-size="14.00" fill="#000000">value = [6, 2]</text>
<text text-anchor="start" x="613" y="-230.8" font-family="Helvetica,sans-Serif" font-size="14.00" fill="#000000">class = C</text>
</g>
<!-- 23&#45;&gt;25 -->
<g id="edge25" class="edge">
<title>23&#45;&gt;25</title>
<path fill="none" stroke="#000000" d="M581.7264,-341.8796C588.8444,-332.9633 596.4339,-323.4565 603.7692,-314.268"/>
<polygon fill="#000000" stroke="#000000" points="606.6281,-316.2968 610.1318,-306.2981 601.1575,-311.9295 606.6281,-316.2968"/>
</g>
<!-- 26 -->
<g id="node27" class="node">
<title>26</title>
<path fill="#e58139" stroke="#000000" d="M667,-179.5C667,-179.5 592,-179.5 592,-179.5 586,-179.5 580,-173.5 580,-167.5 580,-167.5 580,-123.5 580,-123.5 580,-117.5 586,-111.5 592,-111.5 592,-111.5 667,-111.5 667,-111.5 673,-111.5 679,-117.5 679,-123.5 679,-123.5 679,-167.5 679,-167.5 679,-173.5 673,-179.5 667,-179.5"/>
<text text-anchor="start" x="600" y="-164.3" font-family="Helvetica,sans-Serif" font-size="14.00" fill="#000000">gini = 0.0</text>
<text text-anchor="start" x="590" y="-149.3" font-family="Helvetica,sans-Serif" font-size="14.00" fill="#000000">samples = 5</text>
<text text-anchor="start" x="588" y="-134.3" font-family="Helvetica,sans-Serif" font-size="14.00" fill="#000000">value = [5, 0]</text>
<text text-anchor="start" x="599" y="-119.3" font-family="Helvetica,sans-Serif" font-size="14.00" fill="#000000">class = C</text>
</g>
<!-- 25&#45;&gt;26 -->
<g id="edge26" class="edge">
<title>25&#45;&gt;26</title>
<path fill="none" stroke="#000000" d="M638.6035,-222.8796C637.3486,-212.2134 635.9944,-200.7021 634.7237,-189.9015"/>
<polygon fill="#000000" stroke="#000000" points="638.1816,-189.3375 633.5371,-179.8149 631.2295,-190.1554 638.1816,-189.3375"/>
</g>
<!-- 27 -->
<g id="node28" class="node">
<title>27</title>
<path fill="#9ccef2" stroke="#000000" d="M804,-187C804,-187 709,-187 709,-187 703,-187 697,-181 697,-175 697,-175 697,-116 697,-116 697,-110 703,-104 709,-104 709,-104 804,-104 804,-104 810,-104 816,-110 816,-116 816,-116 816,-175 816,-175 816,-181 810,-187 804,-187"/>
<text text-anchor="start" x="705" y="-171.8" font-family="Helvetica,sans-Serif" font-size="14.00" fill="#000000">Insulin ≤ 22.206</text>
<text text-anchor="start" x="718.5" y="-156.8" font-family="Helvetica,sans-Serif" font-size="14.00" fill="#000000">gini = 0.444</text>
<text text-anchor="start" x="717" y="-141.8" font-family="Helvetica,sans-Serif" font-size="14.00" fill="#000000">samples = 3</text>
<text text-anchor="start" x="715" y="-126.8" font-family="Helvetica,sans-Serif" font-size="14.00" fill="#000000">value = [1, 2]</text>
<text text-anchor="start" x="730" y="-111.8" font-family="Helvetica,sans-Serif" font-size="14.00" fill="#000000">class = l</text>
</g>
<!-- 25&#45;&gt;27 -->
<g id="edge27" class="edge">
<title>25&#45;&gt;27</title>
<path fill="none" stroke="#000000" d="M683.0219,-222.8796C691.6597,-213.7832 700.881,-204.0722 709.7697,-194.7116"/>
<polygon fill="#000000" stroke="#000000" points="712.4615,-196.9597 716.8094,-187.2981 707.3854,-192.1395 712.4615,-196.9597"/>
</g>
<!-- 28 -->
<g id="node29" class="node">
<title>28</title>
<path fill="#399de5" stroke="#000000" d="M735,-68C735,-68 660,-68 660,-68 654,-68 648,-62 648,-56 648,-56 648,-12 648,-12 648,-6 654,0 660,0 660,0 735,0 735,0 741,0 747,-6 747,-12 747,-12 747,-56 747,-56 747,-62 741,-68 735,-68"/>
<text text-anchor="start" x="668" y="-52.8" font-family="Helvetica,sans-Serif" font-size="14.00" fill="#000000">gini = 0.0</text>
<text text-anchor="start" x="658" y="-37.8" font-family="Helvetica,sans-Serif" font-size="14.00" fill="#000000">samples = 2</text>
<text text-anchor="start" x="656" y="-22.8" font-family="Helvetica,sans-Serif" font-size="14.00" fill="#000000">value = [0, 2]</text>
<text text-anchor="start" x="671" y="-7.8" font-family="Helvetica,sans-Serif" font-size="14.00" fill="#000000">class = l</text>
</g>
<!-- 27&#45;&gt;28 -->
<g id="edge28" class="edge">
<title>27&#45;&gt;28</title>
<path fill="none" stroke="#000000" d="M734.5306,-103.9815C729.9105,-95.2504 725.0264,-86.0202 720.374,-77.2281"/>
<polygon fill="#000000" stroke="#000000" points="723.4013,-75.4655 715.6306,-68.2637 717.2141,-78.7395 723.4013,-75.4655"/>
</g>
<!-- 29 -->
<g id="node30" class="node">
<title>29</title>
<path fill="#e58139" stroke="#000000" d="M852,-68C852,-68 777,-68 777,-68 771,-68 765,-62 765,-56 765,-56 765,-12 765,-12 765,-6 771,0 777,0 777,0 852,0 852,0 858,0 864,-6 864,-12 864,-12 864,-56 864,-56 864,-62 858,-68 852,-68"/>
<text text-anchor="start" x="785" y="-52.8" font-family="Helvetica,sans-Serif" font-size="14.00" fill="#000000">gini = 0.0</text>
<text text-anchor="start" x="775" y="-37.8" font-family="Helvetica,sans-Serif" font-size="14.00" fill="#000000">samples = 1</text>
<text text-anchor="start" x="773" y="-22.8" font-family="Helvetica,sans-Serif" font-size="14.00" fill="#000000">value = [1, 0]</text>
<text text-anchor="start" x="784" y="-7.8" font-family="Helvetica,sans-Serif" font-size="14.00" fill="#000000">class = C</text>
</g>
<!-- 27&#45;&gt;29 -->
<g id="edge29" class="edge">
<title>27&#45;&gt;29</title>
<path fill="none" stroke="#000000" d="M778.0971,-103.9815C782.6388,-95.2504 787.4402,-86.0202 792.0137,-77.2281"/>
<polygon fill="#000000" stroke="#000000" points="795.1669,-78.7504 796.6767,-68.2637 788.9569,-75.52 795.1669,-78.7504"/>
</g>
<!-- 33 -->
<g id="node34" class="node">
<title>33</title>
<path fill="#399de5" stroke="#000000" d="M939,-536.5C939,-536.5 864,-536.5 864,-536.5 858,-536.5 852,-530.5 852,-524.5 852,-524.5 852,-480.5 852,-480.5 852,-474.5 858,-468.5 864,-468.5 864,-468.5 939,-468.5 939,-468.5 945,-468.5 951,-474.5 951,-480.5 951,-480.5 951,-524.5 951,-524.5 951,-530.5 945,-536.5 939,-536.5"/>
<text text-anchor="start" x="872" y="-521.3" font-family="Helvetica,sans-Serif" font-size="14.00" fill="#000000">gini = 0.0</text>
<text text-anchor="start" x="862" y="-506.3" font-family="Helvetica,sans-Serif" font-size="14.00" fill="#000000">samples = 1</text>
<text text-anchor="start" x="860" y="-491.3" font-family="Helvetica,sans-Serif" font-size="14.00" fill="#000000">value = [0, 1]</text>
<text text-anchor="start" x="875" y="-476.3" font-family="Helvetica,sans-Serif" font-size="14.00" fill="#000000">class = l</text>
</g>
<!-- 32&#45;&gt;33 -->
<g id="edge33" class="edge">
<title>32&#45;&gt;33</title>
<path fill="none" stroke="#000000" d="M903.4507,-579.8796C903.1818,-569.2134 902.8916,-557.7021 902.6194,-546.9015"/>
<polygon fill="#000000" stroke="#000000" points="906.1161,-546.7235 902.3651,-536.8149 899.1183,-546.9 906.1161,-546.7235"/>
</g>
<!-- 34 -->
<g id="node35" class="node">
<title>34</title>
<path fill="#e58139" stroke="#000000" d="M1056,-536.5C1056,-536.5 981,-536.5 981,-536.5 975,-536.5 969,-530.5 969,-524.5 969,-524.5 969,-480.5 969,-480.5 969,-474.5 975,-468.5 981,-468.5 981,-468.5 1056,-468.5 1056,-468.5 1062,-468.5 1068,-474.5 1068,-480.5 1068,-480.5 1068,-524.5 1068,-524.5 1068,-530.5 1062,-536.5 1056,-536.5"/>
<text text-anchor="start" x="989" y="-521.3" font-family="Helvetica,sans-Serif" font-size="14.00" fill="#000000">gini = 0.0</text>
<text text-anchor="start" x="979" y="-506.3" font-family="Helvetica,sans-Serif" font-size="14.00" fill="#000000">samples = 3</text>
<text text-anchor="start" x="977" y="-491.3" font-family="Helvetica,sans-Serif" font-size="14.00" fill="#000000">value = [3, 0]</text>
<text text-anchor="start" x="988" y="-476.3" font-family="Helvetica,sans-Serif" font-size="14.00" fill="#000000">class = C</text>
</g>
<!-- 32&#45;&gt;34 -->
<g id="edge34" class="edge">
<title>32&#45;&gt;34</title>
<path fill="none" stroke="#000000" d="M944.3717,-579.8796C955.4324,-568.3337 967.4418,-555.7976 978.5094,-544.2446"/>
<polygon fill="#000000" stroke="#000000" points="981.2365,-546.4573 985.6269,-536.8149 976.1817,-541.6149 981.2365,-546.4573"/>
</g>
</g>
</svg>
