<?xml version="1.0" encoding="UTF-8" standalone="no"?>
<!DOCTYPE svg PUBLIC "-//W3C//DTD SVG 1.1//EN"
 "http://www.w3.org/Graphics/SVG/1.1/DTD/svg11.dtd">
<!-- Generated by graphviz version 2.40.1 (20161225.0304)
 -->
<!-- Title: Tree Pages: 1 -->
<svg width="1089pt" height="1028pt"
 viewBox="0.00 0.00 1089.00 1028.00" xmlns="http://www.w3.org/2000/svg" xmlns:xlink="http://www.w3.org/1999/xlink">
<g id="graph0" class="graph" transform="scale(1 1) rotate(0) translate(4 1024)">
<title>Tree</title>
<polygon fill="#ffffff" stroke="transparent" points="-4,4 -4,-1024 1085,-1024 1085,4 -4,4"/>
<!-- 0 -->
<g id="node1" class="node">
<title>0</title>
<path fill="#d8ecfa" stroke="#000000" d="M655.5,-1020C655.5,-1020 563.5,-1020 563.5,-1020 557.5,-1020 551.5,-1014 551.5,-1008 551.5,-1008 551.5,-949 551.5,-949 551.5,-943 557.5,-937 563.5,-937 563.5,-937 655.5,-937 655.5,-937 661.5,-937 667.5,-943 667.5,-949 667.5,-949 667.5,-1008 667.5,-1008 667.5,-1014 661.5,-1020 655.5,-1020"/>
<text text-anchor="start" x="560.5" y="-1004.8" font-family="Helvetica,sans-Serif" font-size="14.00" fill="#000000">Glucose ≤ 91.5</text>
<text text-anchor="start" x="571.5" y="-989.8" font-family="Helvetica,sans-Serif" font-size="14.00" fill="#000000">gini = 0.494</text>
<text text-anchor="start" x="565.5" y="-974.8" font-family="Helvetica,sans-Serif" font-size="14.00" fill="#000000">samples = 92</text>
<text text-anchor="start" x="559.5" y="-959.8" font-family="Helvetica,sans-Serif" font-size="14.00" fill="#000000">value = [41, 51]</text>
<text text-anchor="start" x="583" y="-944.8" font-family="Helvetica,sans-Serif" font-size="14.00" fill="#000000">class = l</text>
</g>
<!-- 1 -->
<g id="node2" class="node">
<title>1</title>
<path fill="#efb184" stroke="#000000" d="M588.5,-901C588.5,-901 496.5,-901 496.5,-901 490.5,-901 484.5,-895 484.5,-889 484.5,-889 484.5,-830 484.5,-830 484.5,-824 490.5,-818 496.5,-818 496.5,-818 588.5,-818 588.5,-818 594.5,-818 600.5,-824 600.5,-830 600.5,-830 600.5,-889 600.5,-889 600.5,-895 594.5,-901 588.5,-901"/>
<text text-anchor="start" x="495.5" y="-885.8" font-family="Helvetica,sans-Serif" font-size="14.00" fill="#000000">Insulin ≤ 3.207</text>
<text text-anchor="start" x="504.5" y="-870.8" font-family="Helvetica,sans-Serif" font-size="14.00" fill="#000000">gini = 0.399</text>
<text text-anchor="start" x="498.5" y="-855.8" font-family="Helvetica,sans-Serif" font-size="14.00" fill="#000000">samples = 40</text>
<text text-anchor="start" x="492.5" y="-840.8" font-family="Helvetica,sans-Serif" font-size="14.00" fill="#000000">value = [29, 11]</text>
<text text-anchor="start" x="512" y="-825.8" font-family="Helvetica,sans-Serif" font-size="14.00" fill="#000000">class = C</text>
</g>
<!-- 0&#45;&gt;1 -->
<g id="edge1" class="edge">
<title>0&#45;&gt;1</title>
<path fill="none" stroke="#000000" d="M586.0667,-936.8796C581.1987,-928.2335 576.0181,-919.0322 570.9914,-910.1042"/>
<polygon fill="#000000" stroke="#000000" points="573.9893,-908.2947 566.0334,-901.2981 567.8897,-911.729 573.9893,-908.2947"/>
<text text-anchor="middle" x="559.3022" y="-921.6749" font-family="Helvetica,sans-Serif" font-size="14.00" fill="#000000">True</text>
</g>
<!-- 18 -->
<g id="node19" class="node">
<title>18</title>
<path fill="#74baed" stroke="#000000" d="M722.5,-901C722.5,-901 630.5,-901 630.5,-901 624.5,-901 618.5,-895 618.5,-889 618.5,-889 618.5,-830 618.5,-830 618.5,-824 624.5,-818 630.5,-818 630.5,-818 722.5,-818 722.5,-818 728.5,-818 734.5,-824 734.5,-830 734.5,-830 734.5,-889 734.5,-889 734.5,-895 728.5,-901 722.5,-901"/>
<text text-anchor="start" x="630.5" y="-885.8" font-family="Helvetica,sans-Serif" font-size="14.00" fill="#000000">Leptin ≤ 7.933</text>
<text text-anchor="start" x="638.5" y="-870.8" font-family="Helvetica,sans-Serif" font-size="14.00" fill="#000000">gini = 0.355</text>
<text text-anchor="start" x="632.5" y="-855.8" font-family="Helvetica,sans-Serif" font-size="14.00" fill="#000000">samples = 52</text>
<text text-anchor="start" x="626.5" y="-840.8" font-family="Helvetica,sans-Serif" font-size="14.00" fill="#000000">value = [12, 40]</text>
<text text-anchor="start" x="650" y="-825.8" font-family="Helvetica,sans-Serif" font-size="14.00" fill="#000000">class = l</text>
</g>
<!-- 0&#45;&gt;18 -->
<g id="edge18" class="edge">
<title>0&#45;&gt;18</title>
<path fill="none" stroke="#000000" d="M632.9333,-936.8796C637.8013,-928.2335 642.9819,-919.0322 648.0086,-910.1042"/>
<polygon fill="#000000" stroke="#000000" points="651.1103,-911.729 652.9666,-901.2981 645.0107,-908.2947 651.1103,-911.729"/>
<text text-anchor="middle" x="659.6978" y="-921.6749" font-family="Helvetica,sans-Serif" font-size="14.00" fill="#000000">False</text>
</g>
<!-- 2 -->
<g id="node3" class="node">
<title>2</title>
<path fill="#399de5" stroke="#000000" d="M456,-774.5C456,-774.5 381,-774.5 381,-774.5 375,-774.5 369,-768.5 369,-762.5 369,-762.5 369,-718.5 369,-718.5 369,-712.5 375,-706.5 381,-706.5 381,-706.5 456,-706.5 456,-706.5 462,-706.5 468,-712.5 468,-718.5 468,-718.5 468,-762.5 468,-762.5 468,-768.5 462,-774.5 456,-774.5"/>
<text text-anchor="start" x="389" y="-759.3" font-family="Helvetica,sans-Serif" font-size="14.00" fill="#000000">gini = 0.0</text>
<text text-anchor="start" x="379" y="-744.3" font-family="Helvetica,sans-Serif" font-size="14.00" fill="#000000">samples = 5</text>
<text text-anchor="start" x="377" y="-729.3" font-family="Helvetica,sans-Serif" font-size="14.00" fill="#000000">value = [0, 5]</text>
<text text-anchor="start" x="392" y="-714.3" font-family="Helvetica,sans-Serif" font-size="14.00" fill="#000000">class = l</text>
</g>
<!-- 1&#45;&gt;2 -->
<g id="edge2" class="edge">
<title>1&#45;&gt;2</title>
<path fill="none" stroke="#000000" d="M499.1308,-817.8796C486.9852,-806.2237 473.7881,-793.5587 461.6549,-781.9148"/>
<polygon fill="#000000" stroke="#000000" points="463.8953,-779.2138 454.2567,-774.8149 459.0484,-784.2643 463.8953,-779.2138"/>
</g>
<!-- 3 -->
<g id="node4" class="node">
<title>3</title>
<path fill="#ea9b62" stroke="#000000" d="M593,-782C593,-782 498,-782 498,-782 492,-782 486,-776 486,-770 486,-770 486,-711 486,-711 486,-705 492,-699 498,-699 498,-699 593,-699 593,-699 599,-699 605,-705 605,-711 605,-711 605,-770 605,-770 605,-776 599,-782 593,-782"/>
<text text-anchor="start" x="494" y="-766.8" font-family="Helvetica,sans-Serif" font-size="14.00" fill="#000000">Insulin ≤ 26.703</text>
<text text-anchor="start" x="507.5" y="-751.8" font-family="Helvetica,sans-Serif" font-size="14.00" fill="#000000">gini = 0.284</text>
<text text-anchor="start" x="501.5" y="-736.8" font-family="Helvetica,sans-Serif" font-size="14.00" fill="#000000">samples = 35</text>
<text text-anchor="start" x="500" y="-721.8" font-family="Helvetica,sans-Serif" font-size="14.00" fill="#000000">value = [29, 6]</text>
<text text-anchor="start" x="515" y="-706.8" font-family="Helvetica,sans-Serif" font-size="14.00" fill="#000000">class = C</text>
</g>
<!-- 1&#45;&gt;3 -->
<g id="edge3" class="edge">
<title>1&#45;&gt;3</title>
<path fill="none" stroke="#000000" d="M543.5493,-817.8796C543.7559,-809.6838 543.9751,-800.9891 544.189,-792.5013"/>
<polygon fill="#000000" stroke="#000000" points="547.693,-792.3831 544.4463,-782.2981 540.6953,-792.2067 547.693,-792.3831"/>
</g>
<!-- 4 -->
<g id="node5" class="node">
<title>4</title>
<path fill="#e99254" stroke="#000000" d="M494.5,-663C494.5,-663 390.5,-663 390.5,-663 384.5,-663 378.5,-657 378.5,-651 378.5,-651 378.5,-592 378.5,-592 378.5,-586 384.5,-580 390.5,-580 390.5,-580 494.5,-580 494.5,-580 500.5,-580 506.5,-586 506.5,-592 506.5,-592 506.5,-651 506.5,-651 506.5,-657 500.5,-663 494.5,-663"/>
<text text-anchor="start" x="386.5" y="-647.8" font-family="Helvetica,sans-Serif" font-size="14.00" fill="#000000">Resistin ≤ 26.318</text>
<text text-anchor="start" x="404.5" y="-632.8" font-family="Helvetica,sans-Serif" font-size="14.00" fill="#000000">gini = 0.213</text>
<text text-anchor="start" x="398.5" y="-617.8" font-family="Helvetica,sans-Serif" font-size="14.00" fill="#000000">samples = 33</text>
<text text-anchor="start" x="397" y="-602.8" font-family="Helvetica,sans-Serif" font-size="14.00" fill="#000000">value = [29, 4]</text>
<text text-anchor="start" x="412" y="-587.8" font-family="Helvetica,sans-Serif" font-size="14.00" fill="#000000">class = C</text>
</g>
<!-- 3&#45;&gt;4 -->
<g id="edge4" class="edge">
<title>3&#45;&gt;4</title>
<path fill="none" stroke="#000000" d="M509.4756,-698.8796C501.6802,-689.8733 493.3633,-680.2644 485.3356,-670.9897"/>
<polygon fill="#000000" stroke="#000000" points="487.8691,-668.5686 478.6782,-663.2981 482.5763,-673.1498 487.8691,-668.5686"/>
</g>
<!-- 17 -->
<g id="node18" class="node">
<title>17</title>
<path fill="#399de5" stroke="#000000" d="M612,-655.5C612,-655.5 537,-655.5 537,-655.5 531,-655.5 525,-649.5 525,-643.5 525,-643.5 525,-599.5 525,-599.5 525,-593.5 531,-587.5 537,-587.5 537,-587.5 612,-587.5 612,-587.5 618,-587.5 624,-593.5 624,-599.5 624,-599.5 624,-643.5 624,-643.5 624,-649.5 618,-655.5 612,-655.5"/>
<text text-anchor="start" x="545" y="-640.3" font-family="Helvetica,sans-Serif" font-size="14.00" fill="#000000">gini = 0.0</text>
<text text-anchor="start" x="535" y="-625.3" font-family="Helvetica,sans-Serif" font-size="14.00" fill="#000000">samples = 2</text>
<text text-anchor="start" x="533" y="-610.3" font-family="Helvetica,sans-Serif" font-size="14.00" fill="#000000">value = [0, 2]</text>
<text text-anchor="start" x="548" y="-595.3" font-family="Helvetica,sans-Serif" font-size="14.00" fill="#000000">class = l</text>
</g>
<!-- 3&#45;&gt;17 -->
<g id="edge17" class="edge">
<title>3&#45;&gt;17</title>
<path fill="none" stroke="#000000" d="M555.6428,-698.8796C558.2689,-688.1034 561.1052,-676.4647 563.7608,-665.5677"/>
<polygon fill="#000000" stroke="#000000" points="567.1703,-666.3593 566.1375,-655.8149 560.3693,-664.7019 567.1703,-666.3593"/>
</g>
<!-- 5 -->
<g id="node6" class="node">
<title>5</title>
<path fill="#e88e4d" stroke="#000000" d="M387.5,-544C387.5,-544 275.5,-544 275.5,-544 269.5,-544 263.5,-538 263.5,-532 263.5,-532 263.5,-473 263.5,-473 263.5,-467 269.5,-461 275.5,-461 275.5,-461 387.5,-461 387.5,-461 393.5,-461 399.5,-467 399.5,-473 399.5,-473 399.5,-532 399.5,-532 399.5,-538 393.5,-544 387.5,-544"/>
<text text-anchor="start" x="271.5" y="-528.8" font-family="Helvetica,sans-Serif" font-size="14.00" fill="#000000">MCP.1 ≤ 1477.261</text>
<text text-anchor="start" x="298" y="-513.8" font-family="Helvetica,sans-Serif" font-size="14.00" fill="#000000">gini = 0.17</text>
<text text-anchor="start" x="287.5" y="-498.8" font-family="Helvetica,sans-Serif" font-size="14.00" fill="#000000">samples = 32</text>
<text text-anchor="start" x="286" y="-483.8" font-family="Helvetica,sans-Serif" font-size="14.00" fill="#000000">value = [29, 3]</text>
<text text-anchor="start" x="301" y="-468.8" font-family="Helvetica,sans-Serif" font-size="14.00" fill="#000000">class = C</text>
</g>
<!-- 4&#45;&gt;5 -->
<g id="edge5" class="edge">
<title>4&#45;&gt;5</title>
<path fill="none" stroke="#000000" d="M403.6776,-579.8796C395.1927,-570.7832 386.1346,-561.0722 377.4032,-551.7116"/>
<polygon fill="#000000" stroke="#000000" points="379.8686,-549.2233 370.4881,-544.2981 374.7497,-553.9981 379.8686,-549.2233"/>
</g>
<!-- 16 -->
<g id="node17" class="node">
<title>16</title>
<path fill="#399de5" stroke="#000000" d="M505,-536.5C505,-536.5 430,-536.5 430,-536.5 424,-536.5 418,-530.5 418,-524.5 418,-524.5 418,-480.5 418,-480.5 418,-474.5 424,-468.5 430,-468.5 430,-468.5 505,-468.5 505,-468.5 511,-468.5 517,-474.5 517,-480.5 517,-480.5 517,-524.5 517,-524.5 517,-530.5 511,-536.5 505,-536.5"/>
<text text-anchor="start" x="438" y="-521.3" font-family="Helvetica,sans-Serif" font-size="14.00" fill="#000000">gini = 0.0</text>
<text text-anchor="start" x="428" y="-506.3" font-family="Helvetica,sans-Serif" font-size="14.00" fill="#000000">samples = 1</text>
<text text-anchor="start" x="426" y="-491.3" font-family="Helvetica,sans-Serif" font-size="14.00" fill="#000000">value = [0, 1]</text>
<text text-anchor="start" x="441" y="-476.3" font-family="Helvetica,sans-Serif" font-size="14.00" fill="#000000">class = l</text>
</g>
<!-- 4&#45;&gt;16 -->
<g id="edge16" class="edge">
<title>4&#45;&gt;16</title>
<path fill="none" stroke="#000000" d="M451.2438,-579.8796C453.4846,-569.2134 455.9029,-557.7021 458.1719,-546.9015"/>
<polygon fill="#000000" stroke="#000000" points="461.6602,-547.3209 460.291,-536.8149 454.8097,-545.8817 461.6602,-547.3209"/>
</g>
<!-- 6 -->
<g id="node7" class="node">
<title>6</title>
<path fill="#e78a47" stroke="#000000" d="M322.5,-425C322.5,-425 238.5,-425 238.5,-425 232.5,-425 226.5,-419 226.5,-413 226.5,-413 226.5,-354 226.5,-354 226.5,-348 232.5,-342 238.5,-342 238.5,-342 322.5,-342 322.5,-342 328.5,-342 334.5,-348 334.5,-354 334.5,-354 334.5,-413 334.5,-413 334.5,-419 328.5,-425 322.5,-425"/>
<text text-anchor="start" x="234.5" y="-409.8" font-family="Helvetica,sans-Serif" font-size="14.00" fill="#000000">Leptin ≤ 8.784</text>
<text text-anchor="start" x="242.5" y="-394.8" font-family="Helvetica,sans-Serif" font-size="14.00" fill="#000000">gini = 0.121</text>
<text text-anchor="start" x="236.5" y="-379.8" font-family="Helvetica,sans-Serif" font-size="14.00" fill="#000000">samples = 31</text>
<text text-anchor="start" x="235" y="-364.8" font-family="Helvetica,sans-Serif" font-size="14.00" fill="#000000">value = [29, 2]</text>
<text text-anchor="start" x="250" y="-349.8" font-family="Helvetica,sans-Serif" font-size="14.00" fill="#000000">class = C</text>
</g>
<!-- 5&#45;&gt;6 -->
<g id="edge6" class="edge">
<title>5&#45;&gt;6</title>
<path fill="none" stroke="#000000" d="M313.6627,-460.8796C310.0344,-452.4136 306.178,-443.4153 302.4268,-434.6626"/>
<polygon fill="#000000" stroke="#000000" points="305.5697,-433.1108 298.4135,-425.2981 299.1357,-435.8683 305.5697,-433.1108"/>
</g>
<!-- 15 -->
<g id="node16" class="node">
<title>15</title>
<path fill="#399de5" stroke="#000000" d="M440,-417.5C440,-417.5 365,-417.5 365,-417.5 359,-417.5 353,-411.5 353,-405.5 353,-405.5 353,-361.5 353,-361.5 353,-355.5 359,-349.5 365,-349.5 365,-349.5 440,-349.5 440,-349.5 446,-349.5 452,-355.5 452,-361.5 452,-361.5 452,-405.5 452,-405.5 452,-411.5 446,-417.5 440,-417.5"/>
<text text-anchor="start" x="373" y="-402.3" font-family="Helvetica,sans-Serif" font-size="14.00" fill="#000000">gini = 0.0</text>
<text text-anchor="start" x="363" y="-387.3" font-family="Helvetica,sans-Serif" font-size="14.00" fill="#000000">samples = 1</text>
<text text-anchor="start" x="361" y="-372.3" font-family="Helvetica,sans-Serif" font-size="14.00" fill="#000000">value = [0, 1]</text>
<text text-anchor="start" x="376" y="-357.3" font-family="Helvetica,sans-Serif" font-size="14.00" fill="#000000">class = l</text>
</g>
<!-- 5&#45;&gt;15 -->
<g id="edge15" class="edge">
<title>5&#45;&gt;15</title>
<path fill="none" stroke="#000000" d="M356.3324,-460.8796C362.9587,-449.7735 370.1316,-437.7513 376.8033,-426.5691"/>
<polygon fill="#000000" stroke="#000000" points="379.9083,-428.1959 382.0264,-417.8149 373.8969,-424.6093 379.9083,-428.1959"/>
</g>
<!-- 7 -->
<g id="node8" class="node">
<title>7</title>
<path fill="#f2c09c" stroke="#000000" d="M208.5,-306C208.5,-306 118.5,-306 118.5,-306 112.5,-306 106.5,-300 106.5,-294 106.5,-294 106.5,-235 106.5,-235 106.5,-229 112.5,-223 118.5,-223 118.5,-223 208.5,-223 208.5,-223 214.5,-223 220.5,-229 220.5,-235 220.5,-235 220.5,-294 220.5,-294 220.5,-300 214.5,-306 208.5,-306"/>
<text text-anchor="start" x="114.5" y="-290.8" font-family="Helvetica,sans-Serif" font-size="14.00" fill="#000000">Glucose ≤ 81.5</text>
<text text-anchor="start" x="125.5" y="-275.8" font-family="Helvetica,sans-Serif" font-size="14.00" fill="#000000">gini = 0.444</text>
<text text-anchor="start" x="124" y="-260.8" font-family="Helvetica,sans-Serif" font-size="14.00" fill="#000000">samples = 3</text>
<text text-anchor="start" x="122" y="-245.8" font-family="Helvetica,sans-Serif" font-size="14.00" fill="#000000">value = [2, 1]</text>
<text text-anchor="start" x="133" y="-230.8" font-family="Helvetica,sans-Serif" font-size="14.00" fill="#000000">class = C</text>
</g>
<!-- 6&#45;&gt;7 -->
<g id="edge7" class="edge">
<title>6&#45;&gt;7</title>
<path fill="none" stroke="#000000" d="M239.5791,-341.8796C230.547,-332.6931 220.8987,-322.8798 211.6112,-313.4336"/>
<polygon fill="#000000" stroke="#000000" points="214.1023,-310.975 204.5956,-306.2981 209.1107,-315.8827 214.1023,-310.975"/>
</g>
<!-- 10 -->
<g id="node11" class="node">
<title>10</title>
<path fill="#e68640" stroke="#000000" d="M340.5,-306C340.5,-306 250.5,-306 250.5,-306 244.5,-306 238.5,-300 238.5,-294 238.5,-294 238.5,-235 238.5,-235 238.5,-229 244.5,-223 250.5,-223 250.5,-223 340.5,-223 340.5,-223 346.5,-223 352.5,-229 352.5,-235 352.5,-235 352.5,-294 352.5,-294 352.5,-300 346.5,-306 340.5,-306"/>
<text text-anchor="start" x="246.5" y="-290.8" font-family="Helvetica,sans-Serif" font-size="14.00" fill="#000000">Glucose ≤ 89.5</text>
<text text-anchor="start" x="257.5" y="-275.8" font-family="Helvetica,sans-Serif" font-size="14.00" fill="#000000">gini = 0.069</text>
<text text-anchor="start" x="251.5" y="-260.8" font-family="Helvetica,sans-Serif" font-size="14.00" fill="#000000">samples = 28</text>
<text text-anchor="start" x="250" y="-245.8" font-family="Helvetica,sans-Serif" font-size="14.00" fill="#000000">value = [27, 1]</text>
<text text-anchor="start" x="265" y="-230.8" font-family="Helvetica,sans-Serif" font-size="14.00" fill="#000000">class = C</text>
</g>
<!-- 6&#45;&gt;10 -->
<g id="edge10" class="edge">
<title>6&#45;&gt;10</title>
<path fill="none" stroke="#000000" d="M285.7463,-341.8796C286.7907,-333.5938 287.8994,-324.798 288.9805,-316.2216"/>
<polygon fill="#000000" stroke="#000000" points="292.4532,-316.6573 290.2313,-306.2981 285.5081,-315.7818 292.4532,-316.6573"/>
</g>
<!-- 8 -->
<g id="node9" class="node">
<title>8</title>
<path fill="#e58139" stroke="#000000" d="M87,-179.5C87,-179.5 12,-179.5 12,-179.5 6,-179.5 0,-173.5 0,-167.5 0,-167.5 0,-123.5 0,-123.5 0,-117.5 6,-111.5 12,-111.5 12,-111.5 87,-111.5 87,-111.5 93,-111.5 99,-117.5 99,-123.5 99,-123.5 99,-167.5 99,-167.5 99,-173.5 93,-179.5 87,-179.5"/>
<text text-anchor="start" x="20" y="-164.3" font-family="Helvetica,sans-Serif" font-size="14.00" fill="#000000">gini = 0.0</text>
<text text-anchor="start" x="10" y="-149.3" font-family="Helvetica,sans-Serif" font-size="14.00" fill="#000000">samples = 2</text>
<text text-anchor="start" x="8" y="-134.3" font-family="Helvetica,sans-Serif" font-size="14.00" fill="#000000">value = [2, 0]</text>
<text text-anchor="start" x="19" y="-119.3" font-family="Helvetica,sans-Serif" font-size="14.00" fill="#000000">class = C</text>
</g>
<!-- 7&#45;&gt;8 -->
<g id="edge8" class="edge">
<title>7&#45;&gt;8</title>
<path fill="none" stroke="#000000" d="M123.6283,-222.8796C112.5676,-211.3337 100.5582,-198.7976 89.4906,-187.2446"/>
<polygon fill="#000000" stroke="#000000" points="91.8183,-184.6149 82.3731,-179.8149 86.7635,-189.4573 91.8183,-184.6149"/>
</g>
<!-- 9 -->
<g id="node10" class="node">
<title>9</title>
<path fill="#399de5" stroke="#000000" d="M204,-179.5C204,-179.5 129,-179.5 129,-179.5 123,-179.5 117,-173.5 117,-167.5 117,-167.5 117,-123.5 117,-123.5 117,-117.5 123,-111.5 129,-111.5 129,-111.5 204,-111.5 204,-111.5 210,-111.5 216,-117.5 216,-123.5 216,-123.5 216,-167.5 216,-167.5 216,-173.5 210,-179.5 204,-179.5"/>
<text text-anchor="start" x="137" y="-164.3" font-family="Helvetica,sans-Serif" font-size="14.00" fill="#000000">gini = 0.0</text>
<text text-anchor="start" x="127" y="-149.3" font-family="Helvetica,sans-Serif" font-size="14.00" fill="#000000">samples = 1</text>
<text text-anchor="start" x="125" y="-134.3" font-family="Helvetica,sans-Serif" font-size="14.00" fill="#000000">value = [0, 1]</text>
<text text-anchor="start" x="140" y="-119.3" font-family="Helvetica,sans-Serif" font-size="14.00" fill="#000000">class = l</text>
</g>
<!-- 7&#45;&gt;9 -->
<g id="edge9" class="edge">
<title>7&#45;&gt;9</title>
<path fill="none" stroke="#000000" d="M164.5493,-222.8796C164.8182,-212.2134 165.1084,-200.7021 165.3806,-189.9015"/>
<polygon fill="#000000" stroke="#000000" points="168.8817,-189.9 165.6349,-179.8149 161.8839,-189.7235 168.8817,-189.9"/>
</g>
<!-- 11 -->
<g id="node12" class="node">
<title>11</title>
<path fill="#e58139" stroke="#000000" d="M334,-179.5C334,-179.5 251,-179.5 251,-179.5 245,-179.5 239,-173.5 239,-167.5 239,-167.5 239,-123.5 239,-123.5 239,-117.5 245,-111.5 251,-111.5 251,-111.5 334,-111.5 334,-111.5 340,-111.5 346,-117.5 346,-123.5 346,-123.5 346,-167.5 346,-167.5 346,-173.5 340,-179.5 334,-179.5"/>
<text text-anchor="start" x="263" y="-164.3" font-family="Helvetica,sans-Serif" font-size="14.00" fill="#000000">gini = 0.0</text>
<text text-anchor="start" x="248.5" y="-149.3" font-family="Helvetica,sans-Serif" font-size="14.00" fill="#000000">samples = 22</text>
<text text-anchor="start" x="247" y="-134.3" font-family="Helvetica,sans-Serif" font-size="14.00" fill="#000000">value = [22, 0]</text>
<text text-anchor="start" x="262" y="-119.3" font-family="Helvetica,sans-Serif" font-size="14.00" fill="#000000">class = C</text>
</g>
<!-- 10&#45;&gt;11 -->
<g id="edge11" class="edge">
<title>10&#45;&gt;11</title>
<path fill="none" stroke="#000000" d="M294.4507,-222.8796C294.1818,-212.2134 293.8916,-200.7021 293.6194,-189.9015"/>
<polygon fill="#000000" stroke="#000000" points="297.1161,-189.7235 293.3651,-179.8149 290.1183,-189.9 297.1161,-189.7235"/>
</g>
<!-- 12 -->
<g id="node13" class="node">
<title>12</title>
<path fill="#ea9a61" stroke="#000000" d="M497,-187C497,-187 376,-187 376,-187 370,-187 364,-181 364,-175 364,-175 364,-116 364,-116 364,-110 370,-104 376,-104 376,-104 497,-104 497,-104 503,-104 509,-110 509,-116 509,-116 509,-175 509,-175 509,-181 503,-187 497,-187"/>
<text text-anchor="start" x="372" y="-171.8" font-family="Helvetica,sans-Serif" font-size="14.00" fill="#000000">Adiponectin ≤ 6.806</text>
<text text-anchor="start" x="398.5" y="-156.8" font-family="Helvetica,sans-Serif" font-size="14.00" fill="#000000">gini = 0.278</text>
<text text-anchor="start" x="397" y="-141.8" font-family="Helvetica,sans-Serif" font-size="14.00" fill="#000000">samples = 6</text>
<text text-anchor="start" x="395" y="-126.8" font-family="Helvetica,sans-Serif" font-size="14.00" fill="#000000">value = [5, 1]</text>
<text text-anchor="start" x="406" y="-111.8" font-family="Helvetica,sans-Serif" font-size="14.00" fill="#000000">class = C</text>
</g>
<!-- 10&#45;&gt;12 -->
<g id="edge12" class="edge">
<title>10&#45;&gt;12</title>
<path fill="none" stroke="#000000" d="M344.815,-222.8796C355.9132,-213.513 367.7835,-203.4948 379.1777,-193.8784"/>
<polygon fill="#000000" stroke="#000000" points="381.5899,-196.4225 386.9746,-187.2981 377.075,-191.0731 381.5899,-196.4225"/>
</g>
<!-- 13 -->
<g id="node14" class="node">
<title>13</title>
<path fill="#399de5" stroke="#000000" d="M395,-68C395,-68 320,-68 320,-68 314,-68 308,-62 308,-56 308,-56 308,-12 308,-12 308,-6 314,0 320,0 320,0 395,0 395,0 401,0 407,-6 407,-12 407,-12 407,-56 407,-56 407,-62 401,-68 395,-68"/>
<text text-anchor="start" x="328" y="-52.8" font-family="Helvetica,sans-Serif" font-size="14.00" fill="#000000">gini = 0.0</text>
<text text-anchor="start" x="318" y="-37.8" font-family="Helvetica,sans-Serif" font-size="14.00" fill="#000000">samples = 1</text>
<text text-anchor="start" x="316" y="-22.8" font-family="Helvetica,sans-Serif" font-size="14.00" fill="#000000">value = [0, 1]</text>
<text text-anchor="start" x="331" y="-7.8" font-family="Helvetica,sans-Serif" font-size="14.00" fill="#000000">class = l</text>
</g>
<!-- 12&#45;&gt;13 -->
<g id="edge13" class="edge">
<title>12&#45;&gt;13</title>
<path fill="none" stroke="#000000" d="M407.0833,-103.9815C400.7669,-95.0666 394.0818,-85.6313 387.7349,-76.6734"/>
<polygon fill="#000000" stroke="#000000" points="390.4136,-74.3998 381.7765,-68.2637 384.7019,-78.4466 390.4136,-74.3998"/>
</g>
<!-- 14 -->
<g id="node15" class="node">
<title>14</title>
<path fill="#e58139" stroke="#000000" d="M512,-68C512,-68 437,-68 437,-68 431,-68 425,-62 425,-56 425,-56 425,-12 425,-12 425,-6 431,0 437,0 437,0 512,0 512,0 518,0 524,-6 524,-12 524,-12 524,-56 524,-56 524,-62 518,-68 512,-68"/>
<text text-anchor="start" x="445" y="-52.8" font-family="Helvetica,sans-Serif" font-size="14.00" fill="#000000">gini = 0.0</text>
<text text-anchor="start" x="435" y="-37.8" font-family="Helvetica,sans-Serif" font-size="14.00" fill="#000000">samples = 5</text>
<text text-anchor="start" x="433" y="-22.8" font-family="Helvetica,sans-Serif" font-size="14.00" fill="#000000">value = [5, 0]</text>
<text text-anchor="start" x="444" y="-7.8" font-family="Helvetica,sans-Serif" font-size="14.00" fill="#000000">class = C</text>
</g>
<!-- 12&#45;&gt;14 -->
<g id="edge14" class="edge">
<title>12&#45;&gt;14</title>
<path fill="none" stroke="#000000" d="M450.6498,-103.9815C453.5628,-95.4342 456.6388,-86.4086 459.5781,-77.7839"/>
<polygon fill="#000000" stroke="#000000" points="462.9096,-78.8582 462.8227,-68.2637 456.2839,-76.6 462.9096,-78.8582"/>
</g>
<!-- 19 -->
<g id="node20" class="node">
<title>19</title>
<path fill="#e58139" stroke="#000000" d="M712,-774.5C712,-774.5 637,-774.5 637,-774.5 631,-774.5 625,-768.5 625,-762.5 625,-762.5 625,-718.5 625,-718.5 625,-712.5 631,-706.5 637,-706.5 637,-706.5 712,-706.5 712,-706.5 718,-706.5 724,-712.5 724,-718.5 724,-718.5 724,-762.5 724,-762.5 724,-768.5 718,-774.5 712,-774.5"/>
<text text-anchor="start" x="645" y="-759.3" font-family="Helvetica,sans-Serif" font-size="14.00" fill="#000000">gini = 0.0</text>
<text text-anchor="start" x="635" y="-744.3" font-family="Helvetica,sans-Serif" font-size="14.00" fill="#000000">samples = 3</text>
<text text-anchor="start" x="633" y="-729.3" font-family="Helvetica,sans-Serif" font-size="14.00" fill="#000000">value = [3, 0]</text>
<text text-anchor="start" x="644" y="-714.3" font-family="Helvetica,sans-Serif" font-size="14.00" fill="#000000">class = C</text>
</g>
<!-- 18&#45;&gt;19 -->
<g id="edge19" class="edge">
<title>18&#45;&gt;19</title>
<path fill="none" stroke="#000000" d="M675.8005,-817.8796C675.6212,-807.2134 675.4278,-795.7021 675.2462,-784.9015"/>
<polygon fill="#000000" stroke="#000000" points="678.7444,-784.7547 675.0767,-774.8149 671.7454,-784.8724 678.7444,-784.7547"/>
</g>
<!-- 20 -->
<g id="node21" class="node">
<title>20</title>
<path fill="#66b3eb" stroke="#000000" d="M837,-782C837,-782 754,-782 754,-782 748,-782 742,-776 742,-770 742,-770 742,-711 742,-711 742,-705 748,-699 754,-699 754,-699 837,-699 837,-699 843,-699 849,-705 849,-711 849,-711 849,-770 849,-770 849,-776 843,-782 837,-782"/>
<text text-anchor="start" x="752.5" y="-766.8" font-family="Helvetica,sans-Serif" font-size="14.00" fill="#000000">BMI ≤ 36.131</text>
<text text-anchor="start" x="766" y="-751.8" font-family="Helvetica,sans-Serif" font-size="14.00" fill="#000000">gini = 0.3</text>
<text text-anchor="start" x="751.5" y="-736.8" font-family="Helvetica,sans-Serif" font-size="14.00" fill="#000000">samples = 49</text>
<text text-anchor="start" x="750" y="-721.8" font-family="Helvetica,sans-Serif" font-size="14.00" fill="#000000">value = [9, 40]</text>
<text text-anchor="start" x="769" y="-706.8" font-family="Helvetica,sans-Serif" font-size="14.00" fill="#000000">class = l</text>
</g>
<!-- 18&#45;&gt;20 -->
<g id="edge20" class="edge">
<title>18&#45;&gt;20</title>
<path fill="none" stroke="#000000" d="M718.1204,-817.8796C727.3069,-808.6931 737.1202,-798.8798 746.5664,-789.4336"/>
<polygon fill="#000000" stroke="#000000" points="749.1057,-791.8441 753.7019,-782.2981 744.1559,-786.8943 749.1057,-791.8441"/>
</g>
<!-- 21 -->
<g id="node22" class="node">
<title>21</title>
<path fill="#57ace9" stroke="#000000" d="M819.5,-663C819.5,-663 715.5,-663 715.5,-663 709.5,-663 703.5,-657 703.5,-651 703.5,-651 703.5,-592 703.5,-592 703.5,-586 709.5,-580 715.5,-580 715.5,-580 819.5,-580 819.5,-580 825.5,-580 831.5,-586 831.5,-592 831.5,-592 831.5,-651 831.5,-651 831.5,-657 825.5,-663 819.5,-663"/>
<text text-anchor="start" x="711.5" y="-647.8" font-family="Helvetica,sans-Serif" font-size="14.00" fill="#000000">MCP.1 ≤ 387.508</text>
<text text-anchor="start" x="729.5" y="-632.8" font-family="Helvetica,sans-Serif" font-size="14.00" fill="#000000">gini = 0.231</text>
<text text-anchor="start" x="723.5" y="-617.8" font-family="Helvetica,sans-Serif" font-size="14.00" fill="#000000">samples = 45</text>
<text text-anchor="start" x="722" y="-602.8" font-family="Helvetica,sans-Serif" font-size="14.00" fill="#000000">value = [6, 39]</text>
<text text-anchor="start" x="741" y="-587.8" font-family="Helvetica,sans-Serif" font-size="14.00" fill="#000000">class = l</text>
</g>
<!-- 20&#45;&gt;21 -->
<g id="edge21" class="edge">
<title>20&#45;&gt;21</title>
<path fill="none" stroke="#000000" d="M785.707,-698.8796C783.7574,-690.5938 781.6878,-681.798 779.6698,-673.2216"/>
<polygon fill="#000000" stroke="#000000" points="783.0323,-672.2306 777.3348,-663.2981 776.2183,-673.8339 783.0323,-672.2306"/>
</g>
<!-- 32 -->
<g id="node33" class="node">
<title>32</title>
<path fill="#eeab7b" stroke="#000000" d="M983,-663C983,-663 862,-663 862,-663 856,-663 850,-657 850,-651 850,-651 850,-592 850,-592 850,-586 856,-580 862,-580 862,-580 983,-580 983,-580 989,-580 995,-586 995,-592 995,-592 995,-651 995,-651 995,-657 989,-663 983,-663"/>
<text text-anchor="start" x="858" y="-647.8" font-family="Helvetica,sans-Serif" font-size="14.00" fill="#000000">Adiponectin ≤ 4.002</text>
<text text-anchor="start" x="884.5" y="-632.8" font-family="Helvetica,sans-Serif" font-size="14.00" fill="#000000">gini = 0.375</text>
<text text-anchor="start" x="883" y="-617.8" font-family="Helvetica,sans-Serif" font-size="14.00" fill="#000000">samples = 4</text>
<text text-anchor="start" x="881" y="-602.8" font-family="Helvetica,sans-Serif" font-size="14.00" fill="#000000">value = [3, 1]</text>
<text text-anchor="start" x="892" y="-587.8" font-family="Helvetica,sans-Serif" font-size="14.00" fill="#000000">class = C</text>
</g>
<!-- 20&#45;&gt;32 -->
<g id="edge32" class="edge">
<title>20&#45;&gt;32</title>
<path fill="none" stroke="#000000" d="M839.9184,-698.8796C849.8186,-689.6031 860.4009,-679.6874 870.5731,-670.1559"/>
<polygon fill="#000000" stroke="#000000" points="872.9879,-672.6896 877.892,-663.2981 868.2016,-667.5816 872.9879,-672.6896"/>
</g>
<!-- 22 -->
<g id="node23" class="node">
<title>22</title>
<path fill="#83c2ef" stroke="#000000" d="M693,-544C693,-544 572,-544 572,-544 566,-544 560,-538 560,-532 560,-532 560,-473 560,-473 560,-467 566,-461 572,-461 572,-461 693,-461 693,-461 699,-461 705,-467 705,-473 705,-473 705,-532 705,-532 705,-538 699,-544 693,-544"/>
<text text-anchor="start" x="568" y="-528.8" font-family="Helvetica,sans-Serif" font-size="14.00" fill="#000000">Adiponectin ≤ 9.348</text>
<text text-anchor="start" x="594.5" y="-513.8" font-family="Helvetica,sans-Serif" font-size="14.00" fill="#000000">gini = 0.397</text>
<text text-anchor="start" x="588.5" y="-498.8" font-family="Helvetica,sans-Serif" font-size="14.00" fill="#000000">samples = 22</text>
<text text-anchor="start" x="587" y="-483.8" font-family="Helvetica,sans-Serif" font-size="14.00" fill="#000000">value = [6, 16]</text>
<text text-anchor="start" x="606" y="-468.8" font-family="Helvetica,sans-Serif" font-size="14.00" fill="#000000">class = l</text>
</g>
<!-- 21&#45;&gt;22 -->
<g id="edge22" class="edge">
<title>21&#45;&gt;22</title>
<path fill="none" stroke="#000000" d="M720.2836,-579.8796C709.7598,-570.6031 698.5109,-560.6874 687.6979,-551.1559"/>
<polygon fill="#000000" stroke="#000000" points="689.734,-548.2851 679.918,-544.2981 685.1052,-553.5362 689.734,-548.2851"/>
</g>
<!-- 31 -->
<g id="node32" class="node">
<title>31</title>
<path fill="#399de5" stroke="#000000" d="M818,-536.5C818,-536.5 735,-536.5 735,-536.5 729,-536.5 723,-530.5 723,-524.5 723,-524.5 723,-480.5 723,-480.5 723,-474.5 729,-468.5 735,-468.5 735,-468.5 818,-468.5 818,-468.5 824,-468.5 830,-474.5 830,-480.5 830,-480.5 830,-524.5 830,-524.5 830,-530.5 824,-536.5 818,-536.5"/>
<text text-anchor="start" x="747" y="-521.3" font-family="Helvetica,sans-Serif" font-size="14.00" fill="#000000">gini = 0.0</text>
<text text-anchor="start" x="732.5" y="-506.3" font-family="Helvetica,sans-Serif" font-size="14.00" fill="#000000">samples = 23</text>
<text text-anchor="start" x="731" y="-491.3" font-family="Helvetica,sans-Serif" font-size="14.00" fill="#000000">value = [0, 23]</text>
<text text-anchor="start" x="750" y="-476.3" font-family="Helvetica,sans-Serif" font-size="14.00" fill="#000000">class = l</text>
</g>
<!-- 21&#45;&gt;31 -->
<g id="edge31" class="edge">
<title>21&#45;&gt;31</title>
<path fill="none" stroke="#000000" d="M770.6478,-579.8796C771.4545,-569.2134 772.3251,-557.7021 773.1419,-546.9015"/>
<polygon fill="#000000" stroke="#000000" points="776.6405,-547.0504 773.9048,-536.8149 769.6605,-546.5225 776.6405,-547.0504"/>
</g>
<!-- 23 -->
<g id="node24" class="node">
<title>23</title>
<path fill="#ffffff" stroke="#000000" d="M596.5,-425C596.5,-425 504.5,-425 504.5,-425 498.5,-425 492.5,-419 492.5,-413 492.5,-413 492.5,-354 492.5,-354 492.5,-348 498.5,-342 504.5,-342 504.5,-342 596.5,-342 596.5,-342 602.5,-342 608.5,-348 608.5,-354 608.5,-354 608.5,-413 608.5,-413 608.5,-419 602.5,-425 596.5,-425"/>
<text text-anchor="start" x="500.5" y="-409.8" font-family="Helvetica,sans-Serif" font-size="14.00" fill="#000000">Leptin ≤ 19.951</text>
<text text-anchor="start" x="521" y="-394.8" font-family="Helvetica,sans-Serif" font-size="14.00" fill="#000000">gini = 0.5</text>
<text text-anchor="start" x="506.5" y="-379.8" font-family="Helvetica,sans-Serif" font-size="14.00" fill="#000000">samples = 12</text>
<text text-anchor="start" x="509" y="-364.8" font-family="Helvetica,sans-Serif" font-size="14.00" fill="#000000">value = [6, 6]</text>
<text text-anchor="start" x="520" y="-349.8" font-family="Helvetica,sans-Serif" font-size="14.00" fill="#000000">class = C</text>
</g>
<!-- 22&#45;&gt;23 -->
<g id="edge23" class="edge">
<title>22&#45;&gt;23</title>
<path fill="none" stroke="#000000" d="M603.8204,-460.8796C597.7385,-452.0534 591.2578,-442.6485 584.9859,-433.5466"/>
<polygon fill="#000000" stroke="#000000" points="587.8582,-431.5465 579.302,-425.2981 582.0941,-435.5184 587.8582,-431.5465"/>
</g>
<!-- 30 -->
<g id="node31" class="node">
<title>30</title>
<path fill="#399de5" stroke="#000000" d="M722,-417.5C722,-417.5 639,-417.5 639,-417.5 633,-417.5 627,-411.5 627,-405.5 627,-405.5 627,-361.5 627,-361.5 627,-355.5 633,-349.5 639,-349.5 639,-349.5 722,-349.5 722,-349.5 728,-349.5 734,-355.5 734,-361.5 734,-361.5 734,-405.5 734,-405.5 734,-411.5 728,-417.5 722,-417.5"/>
<text text-anchor="start" x="651" y="-402.3" font-family="Helvetica,sans-Serif" font-size="14.00" fill="#000000">gini = 0.0</text>
<text text-anchor="start" x="636.5" y="-387.3" font-family="Helvetica,sans-Serif" font-size="14.00" fill="#000000">samples = 10</text>
<text text-anchor="start" x="635" y="-372.3" font-family="Helvetica,sans-Serif" font-size="14.00" fill="#000000">value = [0, 10]</text>
<text text-anchor="start" x="654" y="-357.3" font-family="Helvetica,sans-Serif" font-size="14.00" fill="#000000">class = l</text>
</g>
<!-- 22&#45;&gt;30 -->
<g id="edge30" class="edge">
<title>22&#45;&gt;30</title>
<path fill="none" stroke="#000000" d="M649.2881,-460.8796C653.6791,-449.9935 658.4252,-438.227 662.8592,-427.2344"/>
<polygon fill="#000000" stroke="#000000" points="666.1638,-428.3982 666.6587,-417.8149 659.672,-425.7796 666.1638,-428.3982"/>
</g>
<!-- 24 -->
<g id="node25" class="node">
<title>24</title>
<path fill="#399de5" stroke="#000000" d="M559,-298.5C559,-298.5 484,-298.5 484,-298.5 478,-298.5 472,-292.5 472,-286.5 472,-286.5 472,-242.5 472,-242.5 472,-236.5 478,-230.5 484,-230.5 484,-230.5 559,-230.5 559,-230.5 565,-230.5 571,-236.5 571,-242.5 571,-242.5 571,-286.5 571,-286.5 571,-292.5 565,-298.5 559,-298.5"/>
<text text-anchor="start" x="492" y="-283.3" font-family="Helvetica,sans-Serif" font-size="14.00" fill="#000000">gini = 0.0</text>
<text text-anchor="start" x="482" y="-268.3" font-family="Helvetica,sans-Serif" font-size="14.00" fill="#000000">samples = 4</text>
<text text-anchor="start" x="480" y="-253.3" font-family="Helvetica,sans-Serif" font-size="14.00" fill="#000000">value = [0, 4]</text>
<text text-anchor="start" x="495" y="-238.3" font-family="Helvetica,sans-Serif" font-size="14.00" fill="#000000">class = l</text>
</g>
<!-- 23&#45;&gt;24 -->
<g id="edge24" class="edge">
<title>23&#45;&gt;24</title>
<path fill="none" stroke="#000000" d="M540.3572,-341.8796C537.7311,-331.1034 534.8948,-319.4647 532.2392,-308.5677"/>
<polygon fill="#000000" stroke="#000000" points="535.6307,-307.7019 529.8625,-298.8149 528.8297,-309.3593 535.6307,-307.7019"/>
</g>
<!-- 25 -->
<g id="node26" class="node">
<title>25</title>
<path fill="#eeab7b" stroke="#000000" d="M688,-306C688,-306 601,-306 601,-306 595,-306 589,-300 589,-294 589,-294 589,-235 589,-235 589,-229 595,-223 601,-223 601,-223 688,-223 688,-223 694,-223 700,-229 700,-235 700,-235 700,-294 700,-294 700,-300 694,-306 688,-306"/>
<text text-anchor="start" x="597" y="-290.8" font-family="Helvetica,sans-Serif" font-size="14.00" fill="#000000">HOMA ≤ 3.379</text>
<text text-anchor="start" x="606.5" y="-275.8" font-family="Helvetica,sans-Serif" font-size="14.00" fill="#000000">gini = 0.375</text>
<text text-anchor="start" x="605" y="-260.8" font-family="Helvetica,sans-Serif" font-size="14.00" fill="#000000">samples = 8</text>
<text text-anchor="start" x="603" y="-245.8" font-family="Helvetica,sans-Serif" font-size="14.00" fill="#000000">value = [6, 2]</text>
<text text-anchor="start" x="614" y="-230.8" font-family="Helvetica,sans-Serif" font-size="14.00" fill="#000000">class = C</text>
</g>
<!-- 23&#45;&gt;25 -->
<g id="edge25" class="edge">
<title>23&#45;&gt;25</title>
<path fill="none" stroke="#000000" d="M583.3766,-341.8796C590.4197,-332.9633 597.9293,-323.4565 605.1874,-314.268"/>
<polygon fill="#000000" stroke="#000000" points="608.0309,-316.3147 611.483,-306.2981 602.5379,-311.9757 608.0309,-316.3147"/>
</g>
<!-- 26 -->
<g id="node27" class="node">
<title>26</title>
<path fill="#e58139" stroke="#000000" d="M668,-179.5C668,-179.5 593,-179.5 593,-179.5 587,-179.5 581,-173.5 581,-167.5 581,-167.5 581,-123.5 581,-123.5 581,-117.5 587,-111.5 593,-111.5 593,-111.5 668,-111.5 668,-111.5 674,-111.5 680,-117.5 680,-123.5 680,-123.5 680,-167.5 680,-167.5 680,-173.5 674,-179.5 668,-179.5"/>
<text text-anchor="start" x="601" y="-164.3" font-family="Helvetica,sans-Serif" font-size="14.00" fill="#000000">gini = 0.0</text>
<text text-anchor="start" x="591" y="-149.3" font-family="Helvetica,sans-Serif" font-size="14.00" fill="#000000">samples = 5</text>
<text text-anchor="start" x="589" y="-134.3" font-family="Helvetica,sans-Serif" font-size="14.00" fill="#000000">value = [5, 0]</text>
<text text-anchor="start" x="600" y="-119.3" font-family="Helvetica,sans-Serif" font-size="14.00" fill="#000000">class = C</text>
</g>
<!-- 25&#45;&gt;26 -->
<g id="edge26" class="edge">
<title>25&#45;&gt;26</title>
<path fill="none" stroke="#000000" d="M639.6035,-222.8796C638.3486,-212.2134 636.9944,-200.7021 635.7237,-189.9015"/>
<polygon fill="#000000" stroke="#000000" points="639.1816,-189.3375 634.5371,-179.8149 632.2295,-190.1554 639.1816,-189.3375"/>
</g>
<!-- 27 -->
<g id="node28" class="node">
<title>27</title>
<path fill="#9ccef2" stroke="#000000" d="M785,-187C785,-187 710,-187 710,-187 704,-187 698,-181 698,-175 698,-175 698,-116 698,-116 698,-110 704,-104 710,-104 710,-104 785,-104 785,-104 791,-104 797,-110 797,-116 797,-116 797,-175 797,-175 797,-181 791,-187 785,-187"/>
<text text-anchor="start" x="712.5" y="-171.8" font-family="Helvetica,sans-Serif" font-size="14.00" fill="#000000">Age ≤ 73.5</text>
<text text-anchor="start" x="709.5" y="-156.8" font-family="Helvetica,sans-Serif" font-size="14.00" fill="#000000">gini = 0.444</text>
<text text-anchor="start" x="708" y="-141.8" font-family="Helvetica,sans-Serif" font-size="14.00" fill="#000000">samples = 3</text>
<text text-anchor="start" x="706" y="-126.8" font-family="Helvetica,sans-Serif" font-size="14.00" fill="#000000">value = [1, 2]</text>
<text text-anchor="start" x="721" y="-111.8" font-family="Helvetica,sans-Serif" font-size="14.00" fill="#000000">class = l</text>
</g>
<!-- 25&#45;&gt;27 -->
<g id="edge27" class="edge">
<title>25&#45;&gt;27</title>
<path fill="none" stroke="#000000" d="M680.5244,-222.8796C688.3198,-213.8733 696.6367,-204.2644 704.6644,-194.9897"/>
<polygon fill="#000000" stroke="#000000" points="707.4237,-197.1498 711.3218,-187.2981 702.1309,-192.5686 707.4237,-197.1498"/>
</g>
<!-- 28 -->
<g id="node29" class="node">
<title>28</title>
<path fill="#399de5" stroke="#000000" d="M726,-68C726,-68 651,-68 651,-68 645,-68 639,-62 639,-56 639,-56 639,-12 639,-12 639,-6 645,0 651,0 651,0 726,0 726,0 732,0 738,-6 738,-12 738,-12 738,-56 738,-56 738,-62 732,-68 726,-68"/>
<text text-anchor="start" x="659" y="-52.8" font-family="Helvetica,sans-Serif" font-size="14.00" fill="#000000">gini = 0.0</text>
<text text-anchor="start" x="649" y="-37.8" font-family="Helvetica,sans-Serif" font-size="14.00" fill="#000000">samples = 2</text>
<text text-anchor="start" x="647" y="-22.8" font-family="Helvetica,sans-Serif" font-size="14.00" fill="#000000">value = [0, 2]</text>
<text text-anchor="start" x="662" y="-7.8" font-family="Helvetica,sans-Serif" font-size="14.00" fill="#000000">class = l</text>
</g>
<!-- 27&#45;&gt;28 -->
<g id="edge28" class="edge">
<title>27&#45;&gt;28</title>
<path fill="none" stroke="#000000" d="M725.5306,-103.9815C720.9105,-95.2504 716.0264,-86.0202 711.374,-77.2281"/>
<polygon fill="#000000" stroke="#000000" points="714.4013,-75.4655 706.6306,-68.2637 708.2141,-78.7395 714.4013,-75.4655"/>
</g>
<!-- 29 -->
<g id="node30" class="node">
<title>29</title>
<path fill="#e58139" stroke="#000000" d="M843,-68C843,-68 768,-68 768,-68 762,-68 756,-62 756,-56 756,-56 756,-12 756,-12 756,-6 762,0 768,0 768,0 843,0 843,0 849,0 855,-6 855,-12 855,-12 855,-56 855,-56 855,-62 849,-68 843,-68"/>
<text text-anchor="start" x="776" y="-52.8" font-family="Helvetica,sans-Serif" font-size="14.00" fill="#000000">gini = 0.0</text>
<text text-anchor="start" x="766" y="-37.8" font-family="Helvetica,sans-Serif" font-size="14.00" fill="#000000">samples = 1</text>
<text text-anchor="start" x="764" y="-22.8" font-family="Helvetica,sans-Serif" font-size="14.00" fill="#000000">value = [1, 0]</text>
<text text-anchor="start" x="775" y="-7.8" font-family="Helvetica,sans-Serif" font-size="14.00" fill="#000000">class = C</text>
</g>
<!-- 27&#45;&gt;29 -->
<g id="edge29" class="edge">
<title>27&#45;&gt;29</title>
<path fill="none" stroke="#000000" d="M769.0971,-103.9815C773.6388,-95.2504 778.4402,-86.0202 783.0137,-77.2281"/>
<polygon fill="#000000" stroke="#000000" points="786.1669,-78.7504 787.6767,-68.2637 779.9569,-75.52 786.1669,-78.7504"/>
</g>
<!-- 33 -->
<g id="node34" class="node">
<title>33</title>
<path fill="#399de5" stroke="#000000" d="M952,-536.5C952,-536.5 877,-536.5 877,-536.5 871,-536.5 865,-530.5 865,-524.5 865,-524.5 865,-480.5 865,-480.5 865,-474.5 871,-468.5 877,-468.5 877,-468.5 952,-468.5 952,-468.5 958,-468.5 964,-474.5 964,-480.5 964,-480.5 964,-524.5 964,-524.5 964,-530.5 958,-536.5 952,-536.5"/>
<text text-anchor="start" x="885" y="-521.3" font-family="Helvetica,sans-Serif" font-size="14.00" fill="#000000">gini = 0.0</text>
<text text-anchor="start" x="875" y="-506.3" font-family="Helvetica,sans-Serif" font-size="14.00" fill="#000000">samples = 1</text>
<text text-anchor="start" x="873" y="-491.3" font-family="Helvetica,sans-Serif" font-size="14.00" fill="#000000">value = [0, 1]</text>
<text text-anchor="start" x="888" y="-476.3" font-family="Helvetica,sans-Serif" font-size="14.00" fill="#000000">class = l</text>
</g>
<!-- 32&#45;&gt;33 -->
<g id="edge33" class="edge">
<title>32&#45;&gt;33</title>
<path fill="none" stroke="#000000" d="M919.702,-579.8796C918.9849,-569.2134 918.2111,-557.7021 917.485,-546.9015"/>
<polygon fill="#000000" stroke="#000000" points="920.9699,-546.5576 916.8069,-536.8149 913.9856,-547.0272 920.9699,-546.5576"/>
</g>
<!-- 34 -->
<g id="node35" class="node">
<title>34</title>
<path fill="#e58139" stroke="#000000" d="M1069,-536.5C1069,-536.5 994,-536.5 994,-536.5 988,-536.5 982,-530.5 982,-524.5 982,-524.5 982,-480.5 982,-480.5 982,-474.5 988,-468.5 994,-468.5 994,-468.5 1069,-468.5 1069,-468.5 1075,-468.5 1081,-474.5 1081,-480.5 1081,-480.5 1081,-524.5 1081,-524.5 1081,-530.5 1075,-536.5 1069,-536.5"/>
<text text-anchor="start" x="1002" y="-521.3" font-family="Helvetica,sans-Serif" font-size="14.00" fill="#000000">gini = 0.0</text>
<text text-anchor="start" x="992" y="-506.3" font-family="Helvetica,sans-Serif" font-size="14.00" fill="#000000">samples = 3</text>
<text text-anchor="start" x="990" y="-491.3" font-family="Helvetica,sans-Serif" font-size="14.00" fill="#000000">value = [3, 0]</text>
<text text-anchor="start" x="1001" y="-476.3" font-family="Helvetica,sans-Serif" font-size="14.00" fill="#000000">class = C</text>
</g>
<!-- 32&#45;&gt;34 -->
<g id="edge34" class="edge">
<title>32&#45;&gt;34</title>
<path fill="none" stroke="#000000" d="M960.6229,-579.8796C971.1986,-568.3337 982.6812,-555.7976 993.2633,-544.2446"/>
<polygon fill="#000000" stroke="#000000" points="995.8951,-546.5531 1000.0687,-536.8149 990.7333,-541.825 995.8951,-546.5531"/>
</g>
</g>
</svg>
